<svg version="1.2" xmlns="http://www.w3.org/2000/svg" viewBox="0 0 400 400" width="400" height="400">
	<style>
		.s0 { fill: #d9cbba } 
	</style>
	<rect width="400" height="400" id="Color Fill 1" style="fill: #f3eee7"/>
	<path class="s0" d="m43.25 436.15c-0.95-12.41-4.12-77.45-0.31-97.55 3.07-16.15 12.41-39.83 24.08-45.68 13.39-6.63 27.24-12.24 41.4-18.55-1.71-5.69-3.42-12.4-5.68-18.95-4.83-14.11-3.27-27.59 2.8-41.08 4.75-10.45 9.57-20.97 12.76-31.89 2.8-9.27 3.97-19.25 4.67-28.92 0.62-8.11-0.78-16.37-0.54-24.63 0.46-16.84 2.33-33.68 9.8-48.96 7.47-15.44 15.87-30.56 28.94-42.25 6.46-5.77 14.01-11.31 22.57-10.53 9.49 0.94 18.13-2.65 27.39-2.1 13.38 0.85 25.13 5.38 35.63 13.56 9.73 7.56 16.5 17.46 23.19 27.6 6.15 9.28 12.06 18.63 14.71 29.54 1.47 6.16 2.33 12.56 3.03 18.87 1.71 14.97 2.88 30.09 4.82 45.06 2.57 20.04 8.1 39.37 14.63 58.39 3.04 8.89 0.7 17.7-1.32 26.35-2.49 10.76-5.52 21.44-8.33 32.35 7.4 2.89 14.09 5.38 20.62 8.11 11.68 4.84 22.72 10.76 31.83 19.8 8.56 8.5 13.46 18.92 15.64 30.64 3.46 18.64 0.7 100.09 1.09 103.13-110.88-0.07-211.53-2.31-323.42-2.31z"/>
</svg>