<svg version="1.2" xmlns="http://www.w3.org/2000/svg" viewBox="0 0 400 400" width="400" height="400">
	<style>
		.s0 { fill: #d9cbba } 
	</style>
	<rect width="400" height="400" id="Color Fill 1" style="fill: #f3eee7"/>
	<path fill-rule="evenodd" class="s0" d="m41.28 366.33l-7.05 66.24 330.23-1.43-6.93-86.46c-6.17-30.86-27.07-36.61-61.76-59.3-12.64-8.43-5.51-14.26-26.25-28.85-3.89-2.59-8.76-4.86-12-7.45-0.65-11.35 0-12.97 3.89-21.4 2.59-5.83 4.22-11.99 6.48-18.15 6.16-1.94 9.08-0.32 16.54-13.94l11.34-20.42c4.54-4.86 4.22-9.72 2.92-18.15l-6.16-3.24c0.65-14.27 11.35-25.29 11.35-41.49-0.33-17.18-2.6-32.1-9.41-45.39-17.18-34.03-76.82-55.75-109.56-31.76-2.92 2.27-13.29 11.02-14.91 11.67-3.56 1.29-7.45 0.65-11.02 2.27-2.92 1.29-5.83 3.89-8.75 5.51-33.39 20.09-22.69 32.09-21.4 39.87 0.65 4.21 0.65 9.4 1.3 12.96l2.59 11.35c0.65 4.54 0.98 7.45 0.98 12.96l-5.19 3.89c-1.94 3.57 2.27 40.85 3.24 48.63 0.97 8.1 2.92 6.8 3.24 14.91 0.33 15.23-0.65 18.47 4.87 31.12 3.89 8.75 9.4 17.5 11.34 24.31-4.54 4.86-11.34 8.43-16.86 13.61-6.48 6.16-5.83 9.73-17.18 12.97-16.2 4.54-71.02 35.67-75.88 85.16z"/>
</svg>