<svg version="1.2" xmlns="http://www.w3.org/2000/svg" viewBox="0 0 450 450" width="450" height="450">
	<style>
		.s0 { fill: #000000 } 
	</style>
	<rect width="450" height="450" id="bg" style="fill: #ffffff"/>
	<path fill-rule="evenodd" class="s0" d="m310 390.2v0.2l0.2-0.2zm-180-320.3v-0.2h-0.2z"/>
	<path fill-rule="evenodd" class="s0" d="m129.9 99.9l-0.1-0.1h0.1zm40.1 270.5h-0.2v-0.2h0.2zm49.9-10.3h0.1v0.2h-0.1zm-110.4-250.6h-69.4v-69.5h69.4zm-10-59.5h-49.4v49.3h49.4zm241-10.1h69.5v69.4h-69.5zm59.5 10.1h-49.4v49.4h49.4z"/>
	<path fill-rule="evenodd" class="s0" d="m40.1 340.3h69.3v69.6h-69.3zm9.9 59.7h49.4v-49.4h-49.4zm170-340.1h-0.1v-0.2h0.1z"/>
	<path fill-rule="evenodd" class="s0" d="m220 69.7v-9.9h9.8v9.7h9.9v-9.3h10.2v19.4h19.9v30.3h10.2v9.5h-20.2v-29.2h-19.7v9.6h9.5v10.1h-9.5v19.9h19.6v9.8h-9.6v10h-9.8v-9.3h-10.1v9.2h-20.2v-9.5h10v-20.1h10.1v-10l9.8-0.1v-9.9h-9.8q-0.1 4.9-0.2 9.9h-9.9v-10h9.9v-10.2h-19.6v-19.9zm120.1 140.2v0.2h-0.1v-0.2zm10-49.9h-0.2v-0.1z"/>
	<path class="s0" d="m310.2 149.8h-0.2v0.2h0.2z"/>
	<path fill-rule="evenodd" class="s0" d="m310.2 180.1v-30.1h9.8v-9.9h9.9v-10.1h10.1v30h10.1q0 4.9 0 9.9h-9.6v20.2h9.6v10.1h-10v9.7h-10.1v-20.1h-10v-9.7zm19.6-9.8h-9.6v9.6h9.6zm-280.1 99.7h0.1v0.1h-0.1zm100 130h9.9v10h-39.5v-9.5h19.5v-9.9h-19.4v-20.1h19.4v-10h10.1zm-99.8-270.2v0.2h-0.2z"/>
	<path fill-rule="evenodd" class="s0" d="m49.8 179.9l-0.2 0.1v-0.1zm260.3-120.2l-0.1 0.1v-0.1z"/>
	<path class="s0" d="m270.1 59.8v-0.1h-0.1z"/>
	<path fill-rule="evenodd" class="s0" d="m310 49.5v10.2h-9.7v19.8h-10v-9.4h-10v-10.4h-10.2v-9.8h-19.8v-9.9h39.6v9.5zm-240.3 220.5h0.2v0.2h-0.2zm10.2 40v0.2h-0.2v-0.2zm40.1 20.1v0.1h-0.2v-0.1zm260.4-100.2v-29.9h29.6v9.7c-3.1 0.2-6.1 0.3-9.4 0.5v9.6h9.4v19.9h-9.4v-9.8z"/>
	<path fill-rule="evenodd" class="s0" d="m380.1 200.1l0.2-0.2v0.2zm-9.8 49.9v0.1h-0.1v-0.1z"/>
	<path fill-rule="evenodd" class="s0" d="m380.1 229.9h0.2v0.2h-0.2zm0 60.1h0.2v0.2z"/>
	<path class="s0" d="m399.9 259.8h-9.8v-19.7h-9.8v10h-10q-0.1 5-0.2 9.9h-10v10h-10v10h-9.9v-10.1h-10v-19.8h9.9v9.6h10.1v-9.6q10 0 19.9-0.1v-10h10q0-5 0-9.9h-19.8v-9.9h-9.9v-10.1h-10.2q-0.1 14.9-0.1 29.9-4.9-0.1-9.7-0.1-0.2 5.1-0.3 10.1h-29.6v10.2h19.3v10h-10v9.6h-9.5c-0.2-3.3-0.3-6.3-0.5-9.3h-9.9v9.4c-3.4 0.1-6.4 0.3-10 0.5v9.6h-9.8v-20.2h10.2v-9.9h9.3v-19.6h-9.7v9.3h-10v-9.7h-20v-9.8h-9.7v10h-10.1v10h-10v19.6h10.2v-9.8h9.5c0.1-3.4 0.3-6.5 0.4-9.4h9.7v19.5h-10v20h-20v10.1h-9.8v-9.7h-9.9v9.6h-10.2q0-9.9 0-19.8h19.6v-10.2h-19.6v-10.1h20.2v-9.9h9.7v-10h10v-19.8h-19.6v-10.3h29.6v-9.8h-9.6v-10h9.5v-10.2h10.1v-19.6h-10.1v9.3h-10v-9.6h-29.8v20.1h9.9v9.7h9.8v10.1h-19.5v20.2h-20.2q-0.1 9.9-0.2 19.9h-10v10h-9.7v-9.6h-10.2v29.6h10.2v-10h9.7q0.1-4.9 0.2-9.9h9.8v10.1h-9.8v10h19.8v9.8h-9.7v9.8h-10v-9.3h-10v19.5h-10.2q0-14.9-0.1-29.8h-30.1v-10h-20v-10q-4.9-0.1-9.8-0.2v-9.8h-10.1v-10.1h29.7v-10.3h-9.6v-9.7h40v9.8q5 0.1 9.9 0.2c0 3.1 0 6.1 0 9.6h19.9v-9.8h10.1q0.1-4.9 0.2-9.8h9.5v-10.2h-9.5v-9.8h9.6v-19.9h-9.4v9.4h-10c-0.2-3.1-0.4-6.1-0.6-9.5h-9.5v-10.3h-10.1v-20h19.8v-9.8h-19.9v-10.1h19.9q0.1 5 0.2 9.9h9.5v10.2h-9.5v9.7h9.8v10.1h20.1v-20h10v-19.9h-10v-10h-9.9v9.9h-20v-29.9h19.6v-9.8h-19.3v-10.1h19.4v-10.3h30.2v-10.2h19.8v-9.4h-40v9.4h-9.5c-0.2-3.3-0.4-6.3-0.5-9.4h-20.1v9.3h-9.9v-9.2h-39.6v19.7h9.8v9.8q4.9 0.1 9.9 0.2v20.1h-9.9v9.8h9.8v10.1h10.1q0 5 0 9.9h-10.2v30.3h-19.4v10h9.2v10.1h-9.7v9.7h-19.8q-0.1-4.9-0.2-9.9-4.9-0.1-9.8-0.1 0-10 0-19.9h19.5v-10.2h-19.5q-0.1-4.9-0.2-9.8h-9.9l-0.1 9.8h-9.6v10.2h9.6v9.6h-20v-29.6q-5 0-9.9 0v10.2h-9.8v9.8h9.3v10.1h-9.2v19.8h9.5v-9.9h40.1v9.9q-19.9 0.1-39.9 0.1v9.9h40.1v-9.9h9.8v10.2h19.8v9.9h-19.8v9.8h-10.1v10.3h-9.9v9.7q-9.9 0.1-19.9 0.2v19.6h-10.2v-9.3h-9.5v29.6h9.5v-9.6h20.2v9.6q5 0.1 9.9 0.2v9.8q-4.9 0-9.9 0 0-4.9-0.1-9.8h-19.9v10.2h-9.8v9.5c3.3 0.2 6.4 0.3 9.8 0.5v19.7h10.2v-9.7h9.9v9.7h9.8q0.1-15 0.1-29.9h9.9v30h-9.9v10.2h10.3v9.7h29.6q0.1-4.9 0.2-9.9h10v-10h9.9v9.8h20.2v10.1h10.2v9.8h9.8v-9.3h9.6v19.7h-19.6v19.9h9.8v-10h20.1v-9.6h10.1v9.5h9.9v-10h10v-9.8h-9.6v-9.8h9.8v-20.3h10v-20h10v-20h10.1v20h9.8q0.2 5 0.3 10c3.2 0.1 6.4 0.1 10 0.1v9.5h19.4v-9.8h-9.3v-9.5h20v9.3h9.9v-19.6h19.8v20h10v9.6h10.1v-9.6h9.6v19.7h-29.6v-9.4h-9.8c-0.2 3.1-0.3 6.1-0.5 9.4h-9.6v-9.4h-10v9.4h-40.2v20.2q5.1 0.2 10.1 0.3 0 4.9-0.1 9.7h20.2v-9.8h9.7q0 9.9 0 19.8h-9.8v30.1q4.9 0 9.8 0v-9.6h10.2v9.6h10.2v-19.7h9.4v30h-9.4v9.5h39.9v-9.8h19.8v-20.1h19.8v-40h-19.6v-10.2h10.1v-9.9h9.4v-10h-9.7v-9.4h-10.1v19.2h-9.9v-29.6h-9.7v-10.2h-10.2v-9.8h10.1v-10h10v29.8h10.2v-10h19.4v-10.1h-10zm-180.3-80h-9.6v-9.5h9.6zm-49.3 20.2h9.5v9.8h-9.5zm-10.8 19.9h-9.6v-9.6h9.6zm0-110.1h-9.6v-19.6h9.6zm0.1-49.6v19.4h-9.5v-9.8c-3.8 0-7 0-10.2 0v-9.6zm-29.3 120h9.4v-20.2h10.2v19.8h9.7v19.8h-29.3zm-50.4-40.2h9.9v9.9h-9.9zm-19.7 140.2h9.6v9.5h-9.6zm59.6 9.9h-9.8q0-4.9 0-9.9h9.8zm-30-20h-9.9v-19.9h9.9zm0.1 10v-9.8h19.9v9.8q-9.9 0-19.9 0zm10.3 10.2h9.6v9.9h-9.6zm0.1 20.1h9.7v-10.1h10v-10h19.8v9.8h-10v10.1h-10v10h-19.5zm39.7-10.1h9.9v9.8h-9.9zm49.8-69.8h19.9v9.4h-9.5v10.2h-20.1v-9.9h9.7zm9.9 89.6h-19.3v-19.7h9.5v9.8h9.8zm10.7-9.7h9.6v9.5h-9.6zm9.7-0.1q0-5 0-9.9h9.9v9.9q-5 0-9.9 0zm130-60.1h-9.8v-9.9h9.8zm-60.4 90.4h-9.3c0-3.2 0-6.4 0-9.9h9.3zm30.1 29.6h-9.6v-9.6h9.6zm0-29.8h-9.6v-9.5h9.6zm40 49.7h-9.3v-9.3h9.3zm0.2-30.1h-29.5v-29.3h29.5zm20 30.2h-9.3v-9.4h9.3zm-9.4-59.6h9.4v9.8c3.8 0 7 0 10.2 0v19.8h9.8v9.7h-29.4zm-10.4-30.4h-9.9v-19.8h9.9z"/>
	<path fill-rule="evenodd" class="s0" d="m380.3 240h-0.2v0.1h0.2zm-20.2-50.1v19.9h9.8v-9.8h10.2q0-5 0-9.9h-9.5v-10.2h9.5v-9.8h-29.9v19.8z"/>
	<path fill-rule="evenodd" class="s0" d="m350.2 169.9h-0.1v0.1h0.1zm29.9 20.1h0.2l-0.2-0.2zm0.2 9.8h-0.2v0.2z"/>
	<path fill-rule="evenodd" class="s0" d="m350.2 189.9h-0.1v0.2h0.1zm-180.4 180.4h-9.5v20.1h9.4c0.1 3.4 0.3 6.5 0.5 10.1h9.8v9.4h19.6v-9.9h-9.9v-9.9h-9.9v-9.8h-10z"/>
	<path fill-rule="evenodd" class="s0" d="m179.8 380.3h0.2v-0.1h-0.2zm140.5-300.7h9.5v-29.6h-9.9v9.8h-9.7q0 14.9 0 29.9h10.1z"/>
	<path fill-rule="evenodd" class="s0" d="m310 59.8h0.2v-0.1zm0.1 29.9h-0.1l0.1 0.1zm-160.4 250.6h0.2v-0.2h-0.2z"/>
	<path fill-rule="evenodd" class="s0" d="m130.1 340.3h19.7v9.8h-19.8v9.7h-10.1v-29.5h10.2zm139.9-0.2h0.1v0.2h-0.1z"/>
	<path fill-rule="evenodd" class="s0" d="m270 350.3h10v9.8h-19.9v-10h-20v-9.8h29.9zm10-0.2h0.1v0.2h-0.1zm-20 10h0.1v0.1zm-20-10h0.1v0.2h-0.1z"/>
	<path fill-rule="evenodd" class="s0" d="m230.1 350.3h9.8v29.6h-19.9v-19.6h10.1zm0 0h-0.2v-0.2h0.2zm-170.5-140.1q0.1 9.9 0.1 19.8h-9.8v-9.7h-9.8v-30.2h9.5v20.1z"/>
	<path fill-rule="evenodd" class="s0" d="m59.8 210.1h-0.2v-0.2zm0 19.8v0.2h-0.2v-0.2zm-10.1-39.9h-0.1v-0.1h0.1zm0-10.1v0.2h-0.1zm340.4-50.1h0.2v0.2zm10.4 0.1v9.8h9.4v-19.4h-19.6v9.6z"/>
	<path fill-rule="evenodd" class="s0" d="m289.9 159.8v9.7h10.1v-19.5h-19.9v9.8zm-9.7-10h-0.2v0.2h0.2zm120 40.1v-19.9h-10.1v10h-9.8v9.9z"/>
	<path fill-rule="evenodd" class="s0" d="m380.3 179.9h-0.2v0.1h0.2zm19.8-10v0.2h0.2zm-19.9 20.2v-0.2h-0.1zm-80.4-80.3h10.1q0-9.9 0-19.9h-19.8v9.9h9.7z"/>
	<path fill-rule="evenodd" class="s0" d="m290.2 99.9h-0.2v-0.1h0.2zm20-10.1h-0.2v-0.1zm-20.2 39.9h0.2v0.1h-0.2zm-19.8 0.2h19.8v9.8h-10v10.1q-4.9 0-9.8 0zm-0.2 19.8h0.2v0.2zm0.3 220.7h19.5v9.5h-9.5c-0.2 3.6-0.3 6.7-0.5 10h-9.5zm-150.6-240.7v-0.1h0.2z"/>
	<path fill-rule="evenodd" class="s0" d="m119.7 129.8q-14.9 0-29.8 0v-9.8h29.8q0 4.9 0 9.8zm-29.8 0.2l-0.2-0.2h0.2zm280.6 9.8c3.3 0 6.3 0 9.4 0 0.2 3.1 0.3 6.2 0.5 9.9h9.4v9.9h-19.3zm-60.3-29.8h-0.2v-0.2h0.2z"/>
	<path fill-rule="evenodd" class="s0" d="m310.2 119.8v-9.9h9.8v-9.8h9.7v19.7zm-180.3-19.9h-0.1v-0.1zm-0.2 0v19.8h-9.8v-19.8z"/>
	<path fill-rule="evenodd" class="s0" d="m119.9 119.8h-0.2v0.2h0.2zm-60.1 0.4v9.6h19.9v-9.6z"/>
	<path fill-rule="evenodd" class="s0" d="m59.8 129.8h-0.1v0.2h0.1zm250.2-9.8h0.2v-0.2h-0.2z"/>
	<path fill-rule="evenodd" class="s0" d="m310 119.9v9.9h-19.9v-9.9zm49.8 20.4v19.6h-9.6v-19.6zm-9.5 19.6v0.1l-0.2-0.1zm-90.3 200.4v19.5h-9.5v-19.5z"/>
	<path fill-rule="evenodd" class="s0" d="m260.1 360.3l-0.1-0.2v0.2zm-80.2 10v9.9h19.9v-9.9z"/>
	<path fill-rule="evenodd" class="s0" d="m199.9 370.2h0.1v0.1h-0.1zm-19.9 0.2h-0.2v-0.2h0.2zm120 19.9h0.2v0.1h-0.2z"/>
	<path fill-rule="evenodd" class="s0" d="m290.4 390.3v19.6h9.6v-19.6zm19.8 0v19.6h9.8v-19.6z"/>
	<path fill-rule="evenodd" class="s0" d="m310.2 390.2v0.2h-0.2zm9.8 0h0.1v0.2h-0.1zm-70.4 10.2v9.6h-19.6v-9.6zm-19.6-0.1v0.1h-0.2zm179.7 0.1v9.5h-19.6v-9.5z"/>
	<path fill-rule="evenodd" class="s0" d="m390.3 400.4h-0.2l0.2-0.2zm10-230.6v0.2l-0.2-0.2z"/>
	<path fill-rule="evenodd" class="s0" d="m400.3 160.3v9.6h9.6v-9.6zm-100.2-20v9.5h9.9v-9.5z"/>
	<path fill-rule="evenodd" class="s0" d="m300.2 150h-0.2v-0.2h0.2zm79.9-10.3v0.1h-0.2v-0.1zm0.2-9.8v0.2h-0.2zm9.9 0.1v-0.2l0.1 0.2z"/>
	<path fill-rule="evenodd" class="s0" d="m380.3 130q4.9 0 9.8-0.1v9.7c-3.4 0-6.7 0-10 0q0.1-4.8 0.2-9.6zm-290.4 0h-0.2v-0.2zm-10.2 0v-0.1h0.2v0.1zm-30 180.3v9.5h-9.6v-9.5z"/>
	<path fill-rule="evenodd" class="s0" d="m49.7 310.1h0.1v0.1h-0.1zm330.4-189.8q0 4.8 0 9.6h-9.5v-9.6zm0 9.6h0.1l-0.1 0.1z"/>
	<path fill-rule="evenodd" class="s0" d="m349.8 120.3v9.5h-9.6v-9.5z"/>
	<path fill-rule="evenodd" class="s0" d="m340.2 129.8h-0.1v0.2h0.1zm-290.5 0.1l0.1-0.1h-0.1zm-9.6-9.8v9.6h9.6q0-4.8 0-9.6zm109.8 219.9c3.2 0 6.4 0 9.9 0v-9.8h-9.9z"/>
	<path fill-rule="evenodd" class="s0" d="m159.8 330.1h0.2v0.2h-0.2zm120.3-220.1h-0.1v-0.2h0.1z"/>
	<path fill-rule="evenodd" class="s0" d="m290 99.9v9.9h-9.9v-9.9zm-80.1 260.2h0.2v0.2h-0.2z"/>
	<path fill-rule="evenodd" class="s0" d="m209.9 360.3v9.9h-9.9v-9.9zm-9.8 0h-0.2v-0.2h0.2zm-70.3-290.4v9.6h-9.6v-9.6z"/>
	<path fill-rule="evenodd" class="s0" d="m129.8 69.9v-0.2l0.1 0.2zm140.2-10.1v9.6h-9.6v-9.6zm0 0v-0.1l0.2 0.1zm-40.1 330.8q0 4.8 0 9.6h-9.5v-9.6zm0 9.6h0.1l-0.1 0.2zm40.2-100h0.2v0.2z"/>
	<path fill-rule="evenodd" class="s0" d="m259.9 310.3v19.5h-9.5v-19.5zm0-0.2h0.1v0.1h-0.1zm0.1-9.7c3.5 0 6.8 0 10.1 0 0 3.1 0 6.1 0 9.7-3.7 0-6.9 0-10.1 0z"/>
	<path fill-rule="evenodd" class="s0" d="m270.3 300.4l-0.1-0.2v0.2zm70 40.1v9.3h9.5v-9.3zm-160.5-120.6v0.2h0.1v-0.2zm-39.9 0.2v-0.2h-0.1zm-40.1-59.7v9.5h9.6v-9.5z"/>
	<path fill-rule="evenodd" class="s0" d="m99.9 169.9h-0.2v0.1h0.2zm20-39.9v9.6h9.5v-9.6z"/>
	<path fill-rule="evenodd" class="s0" d="m119.9 129.8l-0.2 0.1h0.2zm80.1 30.1h-0.1v0.2h0.1z"/>
	<path fill-rule="evenodd" class="s0" d="m170 139.8h-0.2v0.2h0.2zm0-10h-0.2v0.1h0.2zm40 10h-0.1v0.2zm-20.2-29.9h0.2v-0.1zm20.1 0v9.8h9.9v-9.8z"/>
	<path fill-rule="evenodd" class="s0" d="m210 119.8h-0.1v0.1h0.1zm0-10h-0.1v0.2h0.1zm9.9 10.2h0.1v-0.2h-0.1zm-19.9-19.7v9.5h9.9v-9.5z"/>
	<path fill-rule="evenodd" class="s0" d="m200 109.8h-0.1v0.1h0.1zm20 0h-0.1v0.2h0.1zm-39.7-9.6v9.6h9.6q0-4.8 0-9.6z"/>
	<path fill-rule="evenodd" class="s0" d="m189.9 109.8h0.1l-0.1 0.1zm-20.1 150.3v-0.2h0.2v0.2zm60.1-20.2h0.2v0.2h-0.2z"/>
	<path fill-rule="evenodd" class="s0" d="m219.9 250.1h0.2v-0.1h-0.2zm-120.2 0v0.1h0.2zm50.1 20.1h0.2v-0.2h-0.2zm-89.6-210.2v29.3h29.3v-29.3zm300.4 0.1v29.4h29.3v-29.4zm-300.6 300.3v29.4h29.4v-29.4z"/>
	<path fill-rule="evenodd" class="s0" d="m229.9 109.9v-0.1h0.2v0.1zm-19.9 29.9v0.2h-0.2zm79.9 50h-0.1v-0.1z"/>
	<path fill-rule="evenodd" class="s0" d="m250.1 209.9v-29.9h9.8v-9.7h9.9v19.4h-9.4v10h19.5v-9.8c3.5 0 6.7 0 9.9 0q0.1 10 0.2 20h-9.8v9.8h-9.9v-9.8zm0-29.9h-0.2v-0.1h0.2zm39.9 30v-0.1h0.2zm40.4 29.6l-0.2 0.2v-0.2z"/>
	<path fill-rule="evenodd" class="s0" d="m330.2 220.3c0 6.4 0 12.9 0 19.4h-9.8v-9.5h-10v-9.9zm-30.5-10.2v19.6h-9.6v-19.6z"/>
	<path fill-rule="evenodd" class="s0" d="m290.1 209.9l-0.1 0.2h0.1zm-50 10h9.8q0-4.9 0-9.9h-9.8z"/>
	<path fill-rule="evenodd" class="s0" d="m249.9 209.9h0.2v0.2h-0.2zm-9.8 0.1h-0.2v-0.1h0.2zm29.9-60.1v-0.2l0.1 0.2z"/>
	<path fill-rule="evenodd" class="s0" d="m270 150v9.5h-9.6v-9.5zm40 59.6q0-4.5 0-9.3h9.9v9.3zm-59.9 20.5h-0.2v-0.1h0.2z"/>
	<path fill-rule="evenodd" class="s0" d="m250.1 220.1v9.9h9.5v-9.9zm0 0v-0.2h-0.1v0.2zm59.7-20c0-3.3 0-6.6 0-10h-9.6v10c3.6 0 6.6 0 9.6 0z"/>
	<path fill-rule="evenodd" class="s0" d="m309.8 200.3v-0.2h0.2v0.2zm20.6 39.5v0.1h-0.2zm-40.4-50v0.2l-0.2-0.2z"/>
	<path fill-rule="evenodd" class="s0" d="m300 189.9q-5-0.1-10.1-0.2c0-3 0-6.1 0-9.4h10.1q0 4.8 0 9.6zm0 0.2v-0.2h0.2v0.2zm-240.2 19.8v0.2l-0.2-0.2z"/>
	<path fill-rule="evenodd" class="s0" d="m69.4 200.4v9.5h-9.6v-9.5zm50.5 19.7h19.9v20.1h-10.1v19.8h-9.8zm19.9 0v-0.2l0.2 0.2zm-19.9 39.9v0.2h-0.2v-0.2z"/>
	<path fill-rule="evenodd" class="s0" d="m109.4 240.4v9.6h-9.5v-9.6z"/>
	<path class="s0" d="m99.7 250l0.2 0.2v-0.2z"/>
</svg>