<svg version="1.2" xmlns="http://www.w3.org/2000/svg" viewBox="0 0 456 243">
	<style>
		.s0 { fill: #2fc3e3 } 
		.s1 { fill: #0c5b73 } 
		.s2 { fill: #baccde } 
	</style>
	<g id="Vrstva 1">
		<g id="&lt;Group&gt;">
			<g id="&lt;Group&gt;">
				<path id="&lt;Compound Path&gt;" fill-rule="evenodd" class="s0" d="m166.37 52.81v31.08c0 3.43-1.41 5.37-5.08 5.37-3.68 0-5.11-1.94-5.11-5.37v-72.91c0-3.43 1.43-5.37 5.11-5.37 3.67 0 5.08 1.94 5.08 5.37v31.09h30.05v-31.09c0-3.43 1.41-5.37 5.09-5.37 3.69 0 5.12 1.94 5.12 5.37v72.91c0 3.43-1.43 5.37-5.12 5.37-3.68 0-5.09-1.94-5.09-5.37v-31.08zm81.43 31.08c0 3.43-1.43 5.37-5.11 5.37-3.68 0-5.1-1.94-5.1-5.37v-34.4l-20.13-27.54v-10.97c0-3.43 1.43-5.37 5.11-5.37 3.67 0 5.11 1.94 5.11 5.37v7.32l15.01 20.53 15.02-20.53v-7.32c0-3.43 1.43-5.37 5.1-5.37 3.67 0 5.11 1.94 5.11 5.37v10.97l-20.12 27.54zm41.16 0c0 3.43-1.42 5.37-5.1 5.37-3.68 0-5.1-1.94-5.1-5.37v-78.28h33.91c4.7 0 8.07 0.75 11.74 4.4 4.39 4.32 4.8 8.29 4.8 14.1v14.61c0 5.5-0.41 9.37-4.19 13.78-3.99 4.72-8.17 5.16-13.68 5.16h-22.38zm0-37h22.68c6.03 0 7.37-1.61 7.37-7.73v-15.05c0-6.15-1.34-7.75-7.37-7.75h-22.68zm96.44 31.63c2.67 0 5.11 1.49 5.11 5.37 0 3.87-2.44 5.37-5.11 5.37h-45.36v-83.65h45.36c2.67 0 5.11 1.5 5.11 5.37 0 3.87-2.44 5.38-5.11 5.38h-35.15v25.7h15.02c2.66 0 5.12 1.5 5.12 5.37 0 3.86-2.46 5.38-5.12 5.38h-15.02v25.71zm26.14 5.37c0 3.42-1.42 5.37-5.09 5.37-3.68 0-5.12-1.95-5.12-5.37v-78.28h34.32c8.08 0 16.15 6.02 16.15 15.58v7.43c0 10.1-7.97 15.25-16.15 15.25h-9.4l22.99 34.65c1.12 1.6 2.56 3.64 2.56 5.68 0 3.01-2.35 5.06-5.22 5.06-2.04 0-3.36-1.3-4.49-3.01l-28.18-42.38h-2.37zm0-50.74h22.69c2.86 0 7.35-0.22 7.35-4.52v-7.43c0-4.3-4.18-4.83-7.25-4.83h-22.79z"/>
				<path id="&lt;Compound Path&gt;" fill-rule="evenodd" class="s1" d="m186.29 214.72c-9.26 0-14.56-3.9-18.51-12.36l-11.36-24.17c-2.1-4.43-3.35-8.58-3.35-13.65 0-5.73 1.01-9.22 3.47-14.42l11.37-24.06c4.19-8.98 9.5-12.47 19.01-12.47h20.99c2.71 0 6.17 1.56 6.17 6.49 0 4.68-3.32 6.5-6.17 6.5h-20.63c-5.29 0-6.16 0.52-8.51 5.46l-10.75 22.62c-1.61 3.51-2.58 5.85-2.58 9.88 0 3.64 1.11 5.84 2.58 8.98l10.5 22.46c2.46 5.35 3.72 5.73 9.26 5.73h20.13c2.71 0 6.17 1.56 6.17 6.5 0 4.68-3.32 6.51-6.17 6.51zm67.05 0c-6.18 0-10.99-1.57-15.31-6.64-4.08-4.81-4.7-9.49-4.7-15.47v-72.53c0-4.16 1.73-6.49 6.19-6.49 4.44 0 6.17 2.33 6.17 6.49v72.53c0 7.27 2.1 9.1 7.65 9.1h21c5.55 0 7.65-1.83 7.65-9.1v-72.53c0-4.16 1.73-6.49 6.16-6.49 4.46 0 6.19 2.33 6.19 6.49v72.53c0 5.98-0.63 10.66-4.69 15.47-4.33 5.07-9.15 6.64-15.31 6.64zm60.26-101.13h34.57c18.15 0 26.43 11.69 26.43 30.01 0 7.55-1.62 14.44-8.16 20.55 7.04 7.02 8.16 13.91 8.16 23.52 0 17.04-10.75 27.05-26.43 27.05h-34.57zm12.34 44.05h22.23c8.89 0 14.07-4.14 14.07-14.04 0-10.91-2.84-17.02-14.07-17.02h-22.23zm0 44.07h22.23c8.89 0 14.07-4.15 14.07-14.04 0-10.91-2.84-17.03-14.07-17.03h-22.23zm122.75 0c3.21 0 6.17 1.82 6.17 6.5 0 4.67-2.96 6.51-6.17 6.51h-54.83v-101.13h54.83c3.21 0 6.17 1.82 6.17 6.49 0 4.67-2.96 6.5-6.17 6.5h-42.48v31.06h18.15c3.21 0 6.17 1.82 6.17 6.51 0 4.67-2.96 6.49-6.17 6.49h-18.15v31.07z"/>
			</g>
			<g id="&lt;Group&gt;">
				<path id="&lt;Path&gt;" class="s1" d="m67.33 66.65v175.39l-66.3-39.39v-169.1z"/>
				<path id="&lt;Path&gt;" class="s0" d="m67.35 66.63v175.39l66.3-39.4v-169.08z"/>
				<path id="&lt;Path&gt;" class="s2" d="m133.65 33.54l-66.24 32.88-66.38-32.87 63.81-32.87z"/>
			</g>
		</g>
	</g>
</svg>