<svg class="Logo-module__logo___2z3yC" id="Vrstva_1" version="1.1" viewBox="0 0 841.89 258" x="0px" xmlns="http://www.w3.org/2000/svg" xmlns:xlink="http://www.w3.org/1999/xlink" xml:space="preserve" y="0px">
    <style>
        .Logo-module__st0___23Gv- {
            fill: #1d1d1b
        }
        .Logo-module__st1___asmEH {
            fill: #d60435
        }
    </style>
    <g>
        <path class="Logo-module__st0___23Gv-" d="M757.52,79.71v3.4h2.1c1.86,0,4.4,0.31,4.4-1.55c0-1.73-1.45-1.85-3.1-1.85H757.52z M765.82,91.4h-2.26 l-3.5-6.31h-2.54v6.31h-1.97V77.72h5.75c2.47,0,4.71,0.74,4.71,3.62c0,2.69-1.83,3.69-3.66,3.75L765.82,91.4z M750.03,84.47 c0,5.73,4.64,10.18,10.22,10.18c5.57,0,10.21-4.45,10.21-10.18c0-5.76-4.64-10.18-10.21-10.18 C754.67,74.29,750.03,78.71,750.03,84.47 M748.05,84.47c0-6.78,5.38-12.16,12.2-12.16c6.8,0,12.19,5.38,12.19,12.16 c0,6.78-5.38,12.16-12.19,12.16C753.43,96.63,748.05,91.25,748.05,84.47"></path>
    </g>
    <polygon class="Logo-module__st0___23Gv-" points="293.35,184.02 254.41,184.02 214.67,72.31 254.6,72.31 273.3,138.55 294.71,72.31 333.67,72.31 "></polygon>
    <polygon class="Logo-module__st0___23Gv-" points="338.46,72.31 414.74,72.31 414.74,102.02 377.83,102.02 377.83,114.76 410.75,114.76 410.75,141.26 377.83,141.26 377.83,154.61 414.74,154.61 414.74,184.02 338.46,184.02 "></polygon>
    <g>
        <path class="Logo-module__st0___23Gv-" d="M584.96,122.49h7.46c7.69,0,12.37-4.97,12.37-11.3c0-9.18-6.18-12.4-14.88-12.4h-4.95V122.49z M547.43,72.31 h59.75c20.72,0,35.02,15.26,35.02,33.33s-4.41,28.9-21.28,32.91l30.7,45.46h-44.77l-21.73-37.44v37.44h-37.69V72.31z"></path>
    </g>
    <path class="Logo-module__st0___23Gv-" d="M710.08,106.78l-8.53,36.19h17.59L710.08,106.78z M689.32,72.31h42.67l40.45,111.71h-42.79l-4.43-14.55h-30.97 l-3.29,14.55h-42.9L689.32,72.31z"></path>
    <rect class="Logo-module__st0___23Gv-" height="111.71" width="38.24" x="424.92" y="72.3"></rect>
    <polygon class="Logo-module__st0___23Gv-" points="69.45,72.31 69.45,184.02 105.33,184.02 105.33,123.43 136,123.43 136,72.31 "></polygon>
    <polygon class="Logo-module__st1___asmEH" points="463.98,126.31 495.6,72.31 540.39,72.31 507.48,127.31 546,184.02 497.42,184.02 "></polygon>
    <polygon class="Logo-module__st1___asmEH" points="181.16,184.02 181.16,72.3 145.33,72.3 145.43,132.11 114.31,132.11 114.21,184.02 "></polygon>
</svg>