<svg version="1.2" xmlns="http://www.w3.org/2000/svg" viewBox="0 0 111 108">
	<style>
		.s0 { fill: #007786 } 
	</style>
	<path class="s0" d="m46.2 42.88c-1.61-0.01-2.97-0.74-3.55-1.79l-1.89 0.28 1.1-0.95c0.06-1.42 1.54-3.48 3.99-3.93 2.32-0.42 4.66 0.34 5.81 2.1l-0.21 0.18c-0.32-0.3-0.92-0.76-1.35-0.93l-0.11 0.14c0.45 0.48 1.14 1.43 1.27 2.87l-0.26 0.27-0.69-0.13-1.87 0.85v-0.25l1.7-1.25c-0.63-0.68-1.47-1.18-2.42-1.39q0.2 0.35 0.21 0.78c0 0.9-0.73 1.64-1.64 1.64-0.91 0-1.64-0.73-1.64-1.64q0-0.2 0.05-0.39c-0.89 0.47-1.56 1.14-1.87 1.5 0.79 0.71 2 1.16 3.36 1.16q0.61 0 1.18-0.12v0.45zm-0.46-3.4c0 0.35 0.28 0.63 0.63 0.63 0.34 0 0.63-0.28 0.63-0.63 0-0.26-0.16-0.49-0.4-0.58l-0.6 0.08q-0.25 0.18-0.26 0.5z"/>
	<path class="s0" d="m64.19 42.88c1.61-0.01 2.97-0.74 3.55-1.79l1.89 0.28-1.1-0.95c-0.07-1.42-1.54-3.48-3.99-3.93-2.32-0.42-4.66 0.34-5.81 2.1l0.21 0.18c0.32-0.3 0.92-0.76 1.35-0.93l0.11 0.14c-0.45 0.48-1.14 1.43-1.27 2.87l0.26 0.27 0.69-0.13 1.87 0.85v-0.25l-1.71-1.25c0.63-0.68 1.47-1.18 2.42-1.39q-0.2 0.35-0.21 0.78c0 0.9 0.73 1.64 1.64 1.64 0.9 0 1.64-0.73 1.64-1.64q0-0.2-0.05-0.39c0.89 0.47 1.56 1.14 1.87 1.5-0.79 0.71-2 1.16-3.36 1.16q-0.61 0-1.18-0.12v0.45zm0.46-3.4c0 0.35-0.28 0.63-0.63 0.63-0.34 0-0.62-0.28-0.62-0.63 0-0.26 0.16-0.49 0.39-0.58l0.6 0.08q0.25 0.18 0.26 0.5z"/>
	<path class="s0" d="m13.82 48c0.45-3.04 2.8-5.34 5.7-5.97-0.27-8.92 6.93-16.38 16.84-19.29-0.86-0.66-1.42-1.68-1.42-2.83 0-2 1.68-3.62 3.74-3.62q0.06 0 0.13 0.01c-2.04-1.15-3.41-3.26-3.41-5.7 0-3.65 3.08-6.61 6.88-6.61 2.43 0 4.55 1.21 5.78 3.03q0-0.06-0.01-0.12c0-3.8 3.2-6.88 7.14-6.88 3.94 0 7.14 3.08 7.14 6.88q0 0.06-0.01 0.12c1.23-1.82 3.35-3.03 5.78-3.03 3.8 0 6.88 2.96 6.88 6.61 0 2.43-1.37 4.55-3.41 5.7q0.06 0 0.13-0.01c2.07 0 3.74 1.62 3.74 3.62 0 1.15-0.57 2.17-1.43 2.83 9.91 2.91 17.11 10.37 16.85 19.3 2.91 0.63 5.25 2.93 5.7 5.97 0.59 3.95-2.23 7.65-6.3 8.26-1.61 0.24-3.35-0.17-4.33-0.98-0.02 0.88-0.11 1.78-0.24 2.41-1.44 6.6-7.69 10.92-14.77 9.6-1.96-0.36-3.72-1.16-5.23-2.26-3.94 3.19-8 4.53-8 4.53h-0.19-4.63-0.17c0 0-4.06-1.34-8-4.53-1.51 1.1-3.27 1.89-5.23 2.26-7.09 1.31-13.33-3-14.77-9.6-0.13-0.63-0.22-1.54-0.24-2.41-0.98 0.81-2.72 1.22-4.33 0.98-4.08-0.62-6.9-4.32-6.31-8.27zm30.09 16.35q-1.02-1.05-1.81-2.27c-4.09 0.9-8.55 0.31-11.34-2.53-3.58-3.65-3.63-8.57-3.88-9.94-0.27-1.54-0.98-2.99-3.03-3.34-1.88-0.28-3.62 0.97-3.89 2.8-0.22 1.5 0.39 2.91 1.78 3.48 1.5 0.51 2.81-0.51 2.94-1.61 0.12-0.98-0.47-1.78-1.23-1.9-0.77-0.11-1.48 0.42-1.6 1.18q-0.01 0.06-0.01 0.12l-0.34-0.05c-0.1-0.48-0.03-1 0.25-1.45 0.58-0.91 1.85-1.15 2.78-0.58 1.14 0.68 1.33 1.98 1.34 2.67 0.05 1.21-0.32 2.29 0.02 4.45 1.4 7.07 7.85 11.45 14.94 10.14 1.14-0.22 2.14-0.66 3.08-1.17zm-13.64-8.72c2.54 3.81 6.87 5.75 11.31 5.56-0.61-1.09-1.11-2.22-1.51-3.32-5.35-1.09-9.95-4.88-12.04-9.92 0.33 1.54 0.39 4.81 2.24 7.68zm38.86 0.87c0.86-2.66 1.05-5.31 1.05-5.31 0.82-2.14 1.44-4.94 1.44-7.47 0-2.25-0.39-4.35-1.08-6.25-0.54-1.14-1.55-2.11-2.85-2.72-1.95-0.92-3.85-0.75-4.04-0.73 0 0-4.14 1.46-4.22 1.5-0.76 0.4-1.42 1.53-1.82 2.8-0.35 1.35-0.2 2.25-0.12 3.32 0.1 1.49 0.02 3.98-0.15 4.9 0 0 0.78 0.4 1.08 0.7 0.65 0.6 1.06 1.48 1.06 2.5 0 2.38-1.29 2.69-1.29 2.69h-2.3c-0.34 0.35-1.06 0.29-1.35 0h-2.29c0 0-1.29-0.31-1.29-2.69 0-1.02 0.41-1.9 1.06-2.5 0.3-0.3 1.07-0.7 1.07-0.7-0.17-0.92-0.25-3.41-0.15-4.9 0.07-1.07 0.23-1.98-0.12-3.32-0.41-1.27-1.06-2.4-1.82-2.8-0.08-0.04-4.22-1.5-4.22-1.5-0.19-0.01-2.09-0.19-4.04 0.73-1.3 0.62-2.31 1.58-2.85 2.72-0.69 1.9-1.08 4-1.08 6.25 0 2.52 0.62 5.33 1.44 7.47 0 0 0.19 2.65 1.05 5.31 0.84 2.59 1.99 4.94 3.96 6.87 3.35 3.29 7.74 4.53 7.74 4.53h0.53 3.38 0.53c0 0 4.39-1.24 7.74-4.53 1.95-1.93 3.11-4.27 3.95-6.87zm-10.8-21.48l5.02-2.01v0.01q0.99-0.43 2.13-0.44c1.08 0 2.09 0.32 2.93 0.86-1.69-2.23-3.39-3.76-6.68-5.44-4.21-2.15-5.87-4.59-6.53-6.99-0.66 2.41-2.32 4.85-6.53 6.99-3.3 1.68-5 3.21-6.68 5.44 0.85-0.54 1.85-0.86 2.93-0.86q1.15 0.01 2.13 0.44v-0.01l5.02 2.01c1.59 1.42 2.01 4.49 1.9 5.7l-0.38 6.21c0 0-0.71 0.23-1.3 0.93-0.64 0.75-0.74 1.67-0.6 2.7 0.11 0.74 0.77 0.42 0.77 0.42l1.38-0.5c0.13 0.36 0.55 0.89 1.36 0.9 0.81-0.01 1.23-0.54 1.36-0.9l1.38 0.5c0 0 0.66 0.31 0.77-0.42 0.13-1.03 0.04-1.95-0.6-2.7-0.59-0.7-1.3-0.93-1.3-0.93l-0.38-6.21c-0.12-1.21 0.31-4.28 1.9-5.7zm30.33 17.52c1.39-0.57 2-1.98 1.78-3.48-0.27-1.83-2.02-3.08-3.89-2.8-2.05 0.35-2.75 1.8-3.03 3.34-0.25 1.37-0.3 6.3-3.88 9.94-2.78 2.84-7.25 3.43-11.34 2.53q-0.78 1.23-1.81 2.27c0.95 0.51 1.94 0.95 3.07 1.16 7.09 1.31 13.54-3.07 14.94-10.14 0.34-2.16-0.03-3.24 0.02-4.45 0.01-0.69 0.2-1.99 1.34-2.67 0.94-0.56 2.21-0.33 2.78 0.58 0.29 0.45 0.36 0.97 0.25 1.45l-0.34 0.05q0-0.06-0.01-0.12c-0.11-0.77-0.83-1.3-1.6-1.18-0.77 0.11-1.35 0.91-1.23 1.9 0.14 1.1 1.45 2.12 2.95 1.62zm-19.83 8.66c4.44 0.19 8.77-1.76 11.32-5.56 1.84-2.88 1.88-5.81 2.24-7.68-2.09 5.04-6.69 8.83-12.04 9.92-0.41 1.1-0.91 2.23-1.52 3.32zm19.56-17.67c-1.06 0.16-2.01 0.59-2.79 1.21q0.28-0.06 0.7-0.12c2.81-0.42 5.42 1.46 5.83 4.19 0.36 3.11-1.53 4.62-2.69 5.12-1.23 0.53-2.15 0.36-2.15 0.36 0.8 0.39 1.72 0.55 2.77 0.4 3.17-0.47 5.36-3.35 4.9-6.43-0.47-3.1-3.41-5.21-6.57-4.73zm-25.36-21.53q-0.76 0-1.51 0.04v-0.45q1.62-0.17 3.28-0.17 0.64 0 1.27 0.03c-2.82-2.36-6.34-3.69-10.17-3.85-0.05 1.63 0.4 6.41 6.84 9.58 6.6 3.05 12.14 10.88 9.73 21 1.58-1.73 3.11-4.21 3.11-7.64 0-5.43-3.9-9.99-8.14-12.13v-0.45c5.08 1.6 9.84 6.61 9.84 12.73 0 4.64-2.62 8.41-5.38 10.3-0.07 0.71-0.35 3.1-1.22 5.85 6.59-1.95 10.97-7.67 10.97-14.94 0-10.41-10.6-15.49-17.71-17.15v-0.43c8.03 0.9 19.63 7.51 19.63 17.64q-0.01 1.71-0.36 3.33c1.06-1.84 2.59-3.02 4.94-3.37q0.48-0.07 0.95-0.08c-0.82-10.97-11.65-19.84-26.07-19.84zm6.41-2.24c0 1.19 0.97 2.16 2.16 2.16 1.19 0 2.16-0.97 2.16-2.16 0-1.19-0.97-2.16-2.16-2.16-1.2 0-2.16 0.96-2.16 2.16zm-6.58-10.95c0.92-0.81 2.14-1.32 3.5-1.32 2.83 0 5.12 2.17 5.12 4.86 0 1.2-0.46 2.29-1.22 3.14 1.84-0.84 3.12-2.64 3.12-4.74 0-2.9-2.44-5.25-5.45-5.25-2.31 0-4.27 1.37-5.07 3.31zm-0.05 3.49c0 1.83 1.58 3.31 3.53 3.31 1.95 0 3.53-1.48 3.53-3.31 0-1.83-1.58-3.31-3.53-3.31-1.95 0-3.53 1.49-3.53 3.31zm-13.33-5.22c0 1.16 0.37 2.23 1 3.12q-0.26-0.71-0.27-1.5c0-2.41 1.94-4.39 4.44-4.66v-1.78h1.16v1.78c2.5 0.27 4.44 2.25 4.44 4.66q0 0.57-0.15 1.11 0.06-0.03 0.12-0.06c0.45-0.79 0.71-1.7 0.71-2.67 0-3.05-2.56-5.52-5.73-5.52-3.16-0.01-5.72 2.47-5.72 5.52zm5.17 1.48v-3.06c-1.74 0.26-3.08 1.67-3.08 3.37 0 1.89 1.64 3.42 3.66 3.42 2.02 0 3.65-1.53 3.65-3.42 0-1.7-1.33-3.11-3.08-3.37v3.06zm-11.81 9.92c-0.7 0.86-0.78 2.27 0.33 2.76 2.77-2.81 7.06-4.62 11.89-4.62h0.29c4.83 0 9.12 1.81 11.89 4.62 1.11-0.49 1.03-1.89 0.33-2.76-2.46-2.67-7-4.96-12.22-4.96h-0.29c-5.22 0-9.76 2.29-12.22 4.96zm4.76-6.18c0-1.83-1.58-3.31-3.53-3.31-1.95 0-3.53 1.48-3.53 3.31 0 1.83 1.58 3.31 3.53 3.31 1.95 0 3.53-1.48 3.53-3.31zm-7.44 3.19c-0.76-0.85-1.22-1.94-1.22-3.14 0-2.68 2.29-4.86 5.12-4.86 1.35 0 2.58 0.5 3.5 1.32-0.8-1.94-2.76-3.31-5.06-3.31-3.01 0-5.45 2.35-5.45 5.25-0.02 2.09 1.26 3.89 3.11 4.74zm-3.53 4.27c0 1.19 0.97 2.16 2.16 2.16 1.19 0 2.16-0.97 2.16-2.16 0-1.19-0.97-2.16-2.16-2.16-1.19 0-2.16 0.96-2.16 2.16zm-15.32 22.1q0.48 0.01 0.95 0.08c2.35 0.35 3.88 1.53 4.94 3.37q-0.35-1.61-0.36-3.33c0-10.13 11.6-16.74 19.63-17.64v0.43c-7.11 1.66-17.71 6.74-17.71 17.15 0 7.27 4.38 12.99 10.97 14.94-0.87-2.75-1.16-5.14-1.22-5.85-2.76-1.89-5.38-5.66-5.38-10.3 0-6.12 4.75-11.13 9.84-12.73v0.45c-4.24 2.14-8.14 6.69-8.14 12.13 0 3.43 1.53 5.91 3.11 7.64-2.41-10.13 3.13-17.95 9.73-21 6.45-3.17 6.89-7.95 6.84-9.58-3.88 0.13-7.3 1.48-10.15 3.85q0.63-0.02 1.25-0.02 1.67 0 3.28 0.17v0.45q-0.75-0.03-1.51-0.04c-14.42-0.03-25.25 8.84-26.07 19.83zm-0.95 12.81c1.05 0.16 1.97-0.01 2.77-0.4-0.01 0-0.93 0.17-2.16-0.36-1.17-0.5-3.05-2.01-2.69-5.12 0.41-2.73 3.02-4.61 5.83-4.19q0.42 0.06 0.7 0.12c-0.78-0.62-1.73-1.05-2.79-1.21-3.17-0.47-6.11 1.64-6.57 4.72-0.45 3.09 1.74 5.97 4.91 6.44zm40.66 1.78l1.42 1.51-5.56-0.81-1.68 0.56-1.69-0.56-5.56 0.81 1.43-1.51c0 0 0.99 0.41 1.27 0.48l2.75-1.24c0 0 0.94-0.49 1.57 0.26q0.08 0.1 0.24 0.1c0.11 0 0.21-0.11 0.21-0.11 0.63-0.74 1.57-0.25 1.57-0.25l2.75 1.24c0.29-0.07 1.28-0.48 1.28-0.48zm-2.2 1.78l0.59 0.08c-0.04 0.33-0.44 2.3-2.62 2.3-0.6 0-1.14-0.22-1.58-0.56-0.44 0.34-0.98 0.56-1.58 0.56-2.18 0-2.58-1.98-2.62-2.3l0.58-0.08c0.47 0.87 1.41 1.52 2.47 1.52q0.62-0.01 1.14-0.25 0.53 0.24 1.14 0.25c1.07-0.01 2.01-0.65 2.48-1.52zm-12.62-15.35c-1.61-0.01-2.97-0.74-3.55-1.79l-1.89 0.28 1.06-0.75c0.2-1.77 1.58-3.68 4.02-4.12 2.32-0.42 4.66 0.34 5.81 2.1l-0.14 0.11q-0.55-0.62-1.27-1.02l-0.25 0.29c0.45 0.49 1.14 1.43 1.27 2.87l-0.26 0.27-0.69-0.13-1.87 0.86v-0.25l1.71-1.25c-0.63-0.68-1.47-1.18-2.42-1.39q0.2 0.35 0.21 0.78c0 0.9-0.73 1.64-1.64 1.64-0.9 0-1.64-0.73-1.64-1.64q0-0.19 0.05-0.39c-0.89 0.47-1.56 1.14-1.87 1.5 0.79 0.71 2 1.16 3.36 1.16q0.61 0 1.18-0.12v0.45zm-0.46-3.4c0 0.35 0.28 0.63 0.62 0.63 0.35 0 0.63-0.28 0.63-0.63 0-0.26-0.16-0.49-0.39-0.58l-0.6 0.08q-0.25 0.18-0.26 0.5z"/>
	<path class="s0" d="m37.4 68.75c2.84-2.84 7.43-2.84 10.27 0 1.27 1.26 1.93 2.88 2.07 4.53 1.33-1.54 3.27-2.53 5.47-2.53 2.2 0 4.13 0.99 5.47 2.53 0.14-1.65 0.81-3.27 2.07-4.53 2.84-2.84 7.43-2.84 10.27 0 2.84 2.84 2.84 7.43 0 10.27-2.84 2.84-7.43 2.84-10.27 0q-0.18-0.2-0.33-0.41c-0.31 3.73-3.4 6.67-7.2 6.67-3.81 0-6.9-2.94-7.2-6.67-0.12 0.13-0.21 0.28-0.33 0.41-2.83 2.84-7.43 2.84-10.27 0-2.84-2.84-2.86-7.44-0.02-10.27zm32.77 0.01c0.96 0.93 1.56 2.24 1.56 3.68 0 2.84-2.3 5.15-5.15 5.15-1.65 0-3.11-0.79-4.05-2 0.26 0.83 0.7 1.62 1.36 2.28 2.2 2.2 5.76 2.2 7.96 0 2.2-2.2 2.2-5.76 0-7.96q-0.76-0.75-1.68-1.15zm-7.2 3.69c0 2 1.62 3.63 3.63 3.63 2 0 3.63-1.62 3.63-3.63 0-2-1.62-3.63-3.63-3.63-2.01 0.01-3.63 1.63-3.63 3.63zm-10.43 1.09c-1.42 1.42-1.42 3.71 0 5.13 1.42 1.42 3.71 1.42 5.13 0 1.42-1.42 1.42-3.71 0-5.13-1.42-1.42-3.72-1.42-5.13 0zm-2.58 2.48q-0.37 0.93-0.38 2c0 3.11 2.52 5.63 5.63 5.63 3.11 0 5.63-2.52 5.63-5.63 0-0.93-0.25-1.8-0.65-2.57 0.19 1.52-0.28 3.11-1.45 4.28-2.01 2.01-5.27 2.01-7.28 0-1.02-1.03-1.52-2.37-1.5-3.71zm-9.72-7.26q-0.92 0.4-1.68 1.14c-2.2 2.2-2.2 5.76 0 7.96 2.2 2.2 5.76 2.2 7.96 0 0.66-0.66 1.1-1.45 1.36-2.28-0.94 1.21-2.39 2-4.05 2-2.84 0-5.15-2.31-5.15-5.15 0-1.43 0.6-2.73 1.56-3.67zm-0.05 3.69c0 2 1.62 3.63 3.63 3.63 2 0 3.63-1.62 3.63-3.63 0-2-1.62-3.63-3.63-3.63-2.01 0.01-3.63 1.63-3.63 3.63z"/>
	<path class="s0" d="m6.89 94.46c-3.93 0-6.89 2.82-6.89 6.71 0 3.88 2.95 6.67 6.89 6.67 3.94 0 6.89-2.79 6.89-6.67-0.01-3.88-2.96-6.71-6.89-6.71zm-4.83 6.71c0-2.88 2.13-4.83 4.83-4.83 2.71 0 4.83 1.95 4.83 4.83 0 2.89-2.11 4.83-4.83 4.83-2.7 0-4.83-1.94-4.83-4.83zm14.08-6.47v12.92h3.08c3.26 0 4.96-2.09 4.96-4.33 0-1.58-0.8-2.93-2.1-3.64 0.4-0.44 0.69-1.17 0.69-1.91 0-1.79-1.09-3.02-3.9-3.02h-2.73zm1.9 1.46h0.95c1.35 0 2 0.67 2 1.71 0 0.49-0.18 0.98-0.45 1.27q-0.66-0.14-1.3-0.14c-0.38 0-0.89 0.05-1.2 0.13zm0 4.52c0.46-0.15 0.96-0.16 1.35-0.16 1.69 0 2.82 1.24 2.82 2.75 0 1.47-1.09 2.75-2.92 2.75h-1.26v-5.34zm8.65-5.98v12.92h7.94v-1.73h-6.05v-4.01h4.12v-1.68h-4.12v-3.79h6.05v-1.71zm17.51-0.09q-0.67-0.14-1.38-0.15c-3.93 0-6.89 2.82-6.89 6.71 0 3.88 2.95 6.69 6.89 6.69 0.44 0 0.93-0.06 1.38-0.13v-1.91q-0.64 0.16-1.35 0.16c-2.84 0-4.86-1.88-4.86-4.81 0-2.88 2.02-4.81 4.9-4.81q0.68 0 1.31 0.15zm2.4-0.42v13.43h1.91v-9.42l6.03 5.17v4.24h1.9v-12.91h-1.9v6.29zm13.89 13.43h1.9v-12.92h-1.9zm-0.59-13.96l0.8 0.58 3.04-1.57-1.37-0.73zm11.37 1.04v12.92h4.03c3.81 0 6.63-2.7 6.63-6.45 0-3.77-2.82-6.47-6.63-6.47zm1.91 1.79h2.11c2.75 0 4.65 1.95 4.65 4.68 0 2.71-1.89 4.68-4.65 4.68h-2.11zm11.15-1.79v9c0 2.59 2.53 4.14 4.92 4.14 2.39 0 4.94-1.55 4.94-4.14v-9h-1.89v8.73c0 1.77-1.58 2.64-3.04 2.64-1.55 0-3.02-0.87-3.02-2.64v-8.73zm3.13-1.8c0 0.95 0.84 1.62 1.86 1.62 1.02 0 1.86-0.67 1.86-1.62 0-0.95-0.84-1.62-1.86-1.62-1.02 0-1.86 0.67-1.86 1.62zm1.11 0c0-0.38 0.33-0.65 0.75-0.65 0.44 0 0.75 0.27 0.75 0.65 0 0.4-0.31 0.66-0.75 0.66-0.42-0.01-0.75-0.26-0.75-0.66zm9.04 1.38v13.33h1.89v-8.87l4.57 5.06 4.52-5.06v8.87h1.89v-13.33l-6.41 6.89z"/>
</svg>