<?xml version="1.0" encoding="utf-8"?>
<!-- Generator: Adobe Illustrator 24.0.1, SVG Export Plug-In . SVG Version: 6.00 Build 0)  -->
<svg version="1.1" id="Vrstva_1" xmlns="http://www.w3.org/2000/svg" xmlns:xlink="http://www.w3.org/1999/xlink" x="0px" y="0px"
	 viewBox="0 0 139.7 52.9" style="enable-background:new 0 0 139.7 52.9;" xml:space="preserve">
<style type="text/css">
	.st0{fill:#FFFFFF;}
</style>
<g>
	<path class="st0" d="M0,25.8h11.8c2,0,3.5,0.5,4.5,1.5c1.1,1,1.6,2.2,1.6,3.7c0,1.2-0.4,2.3-1.1,3.2c-0.5,0.6-1.2,1.1-2.2,1.4
		c1.5,0.4,2.5,1,3.2,1.9c0.7,0.9,1,2,1,3.3c0,1.1-0.2,2.1-0.7,2.9c-0.5,0.9-1.2,1.6-2,2.1c-0.5,0.3-1.3,0.5-2.4,0.7
		c-1.4,0.2-2.4,0.3-2.8,0.3H0V25.8z M6.4,34h2.7c1,0,1.7-0.2,2.1-0.5c0.4-0.4,0.6-0.9,0.6-1.5c0-0.6-0.2-1.1-0.6-1.4
		c-0.4-0.3-1.1-0.5-2-0.5H6.4V34z M6.4,42.3h3.2c1.1,0,1.9-0.2,2.3-0.6c0.4-0.4,0.7-0.9,0.7-1.6c0-0.6-0.2-1.1-0.7-1.5
		c-0.4-0.4-1.2-0.6-2.3-0.6H6.4V42.3z M22,25.8h5.7v4H22V25.8z M22,31.6h5.7v15.2H22V31.6z M41.6,31.6H47v14.3l0,0.7
		c0,1-0.2,1.9-0.6,2.7c-0.4,0.9-0.9,1.6-1.6,2.1c-0.7,0.5-1.5,0.9-2.5,1.2c-1,0.2-2.2,0.4-3.5,0.4c-3,0-5-0.5-6.1-1.4
		c-1.1-0.9-1.7-2.1-1.7-3.7c0-0.2,0-0.4,0-0.8l5.5,0.6c0.1,0.5,0.4,0.9,0.6,1.1c0.4,0.3,0.9,0.4,1.6,0.4c0.8,0,1.4-0.2,1.8-0.7
		c0.4-0.4,0.6-1.2,0.6-2.3V44c-0.6,0.7-1.1,1.2-1.7,1.5c-0.9,0.5-1.8,0.7-2.8,0.7c-2,0-3.6-0.9-4.8-2.7c-0.9-1.3-1.3-2.9-1.3-5
		c0-2.4,0.6-4.2,1.7-5.4c1.1-1.2,2.6-1.9,4.4-1.9c1.2,0,2.1,0.2,2.9,0.6c0.8,0.4,1.5,1.1,2.1,2V31.6z M36.3,39
		c0,1.1,0.2,1.9,0.7,2.4c0.5,0.5,1.1,0.8,1.8,0.8c0.7,0,1.3-0.3,1.8-0.8c0.5-0.5,0.7-1.4,0.7-2.5c0-1.1-0.3-2-0.8-2.5
		c-0.5-0.6-1.1-0.9-1.8-0.9c-0.7,0-1.3,0.3-1.7,0.8C36.5,36.8,36.3,37.7,36.3,39 M50.8,25.8h11.8c2,0,3.5,0.5,4.5,1.5
		c1.1,1,1.6,2.2,1.6,3.7c0,1.2-0.4,2.3-1.1,3.2c-0.5,0.6-1.2,1.1-2.2,1.4c1.5,0.4,2.5,1,3.2,1.9c0.7,0.9,1,2,1,3.3
		c0,1.1-0.2,2.1-0.7,2.9c-0.5,0.9-1.2,1.6-2,2.1c-0.5,0.3-1.3,0.5-2.4,0.7c-1.4,0.2-2.4,0.3-2.8,0.3H50.8V25.8z M57.2,34h2.7
		c1,0,1.7-0.2,2.1-0.5c0.4-0.4,0.6-0.9,0.6-1.5c0-0.6-0.2-1.1-0.6-1.4c-0.4-0.3-1.1-0.5-2-0.5h-2.8V34z M57.2,42.3h3.2
		c1.1,0,1.9-0.2,2.3-0.6c0.4-0.4,0.7-0.9,0.7-1.6c0-0.6-0.2-1.1-0.7-1.5c-0.4-0.4-1.2-0.6-2.3-0.6h-3.2V42.3z M71.9,39.2
		c0-2.3,0.8-4.2,2.3-5.7c1.5-1.5,3.6-2.3,6.2-2.3c3,0,5.2,0.9,6.7,2.6c1.2,1.4,1.8,3.2,1.8,5.2c0,2.3-0.8,4.2-2.3,5.7
		c-1.5,1.5-3.6,2.2-6.3,2.2c-2.4,0-4.3-0.6-5.8-1.9C72.8,43.7,71.9,41.7,71.9,39.2 M77.6,39.2c0,1.4,0.3,2.4,0.8,3
		c0.5,0.6,1.2,1,2,1c0.8,0,1.5-0.3,2-1c0.5-0.6,0.8-1.7,0.8-3.1c0-1.3-0.3-2.3-0.8-2.9c-0.5-0.6-1.2-1-2-1c-0.8,0-1.5,0.3-2.1,1
		C77.9,36.9,77.6,37.9,77.6,39.2 M96.8,36.5l-5.4-0.6c0.2-1,0.5-1.7,0.9-2.3c0.4-0.6,0.9-1,1.7-1.4c0.5-0.3,1.2-0.5,2.1-0.7
		c0.9-0.2,1.9-0.2,3-0.2c1.7,0,3.1,0.1,4.1,0.3c1,0.2,1.9,0.6,2.6,1.2c0.5,0.4,0.9,1,1.1,1.8c0.3,0.8,0.4,1.5,0.4,2.3v6.7
		c0,0.7,0,1.3,0.1,1.7c0.1,0.4,0.3,0.9,0.6,1.6h-5.3c-0.2-0.4-0.4-0.7-0.4-0.9c-0.1-0.2-0.1-0.5-0.2-1c-0.7,0.7-1.5,1.3-2.2,1.6
		c-1,0.4-2.2,0.6-3.5,0.6c-1.8,0-3.1-0.4-4-1.3C91.4,45,91,44,91,42.8c0-1.2,0.3-2.1,1-2.8c0.7-0.7,1.9-1.3,3.7-1.7
		c2.1-0.4,3.5-0.7,4.1-0.9c0.6-0.2,1.3-0.4,2-0.7c0-0.7-0.1-1.2-0.4-1.5c-0.3-0.3-0.8-0.4-1.5-0.4c-0.9,0-1.6,0.2-2.1,0.5
		C97.4,35.4,97.1,35.9,96.8,36.5 M101.8,39.6c-0.8,0.3-1.6,0.5-2.4,0.8c-1.2,0.3-1.9,0.6-2.2,0.9c-0.3,0.3-0.5,0.7-0.5,1.1
		c0,0.5,0.2,0.8,0.5,1.1c0.3,0.3,0.8,0.4,1.4,0.4c0.6,0,1.2-0.2,1.8-0.5c0.5-0.3,0.9-0.7,1.2-1.2c0.2-0.5,0.3-1,0.3-1.8V39.6z
		 M110.8,31.6h5.3v2.5c0.5-1.1,1-1.8,1.6-2.2c0.5-0.4,1.2-0.6,2-0.6c0.8,0,1.8,0.3,2.7,0.8l-1.8,4.1c-0.7-0.3-1.2-0.4-1.6-0.4
		c-0.7,0-1.3,0.3-1.7,0.9c-0.6,0.9-0.9,2.5-0.9,5v5.1h-5.7V31.6z M139.7,25.8v20.9h-5.3v-2.2c-0.7,1-1.4,1.6-2,1.9
		c-0.8,0.4-1.7,0.7-2.7,0.7c-2,0-3.6-0.8-4.6-2.4c-1.1-1.6-1.6-3.5-1.6-5.7c0-2.5,0.6-4.4,1.8-5.8c1.2-1.3,2.7-2,4.5-2
		c0.9,0,1.7,0.2,2.4,0.5c0.7,0.3,1.4,0.8,1.9,1.4v-7.3H139.7z M134,39.1c0-1.2-0.2-2.1-0.7-2.7c-0.5-0.6-1.1-0.9-1.9-0.9
		c-0.7,0-1.2,0.3-1.7,0.8c-0.4,0.6-0.7,1.5-0.7,2.8c0,1.2,0.2,2.1,0.7,2.7c0.5,0.6,1,0.9,1.7,0.9c0.7,0,1.3-0.3,1.8-0.9
		C133.8,41.4,134,40.5,134,39.1"/>
</g>
<polygon class="st0" points="14,0 14,17.6 14,17.6 2.2,0 0,0 0,20.8 1.9,20.8 1.9,3.2 2,3.2 13.8,20.8 16,20.8 16,0 "/>
<g>
	<path class="st0" d="M20.3,8.1c0.3-0.6,0.7-1.2,1.2-1.6c0.5-0.4,1.1-0.7,1.8-0.9c0.7-0.2,1.5-0.3,2.3-0.3c0.6,0,1.3,0.1,1.9,0.2
		c0.6,0.1,1.2,0.4,1.7,0.7c0.5,0.3,0.9,0.8,1.2,1.5c0.3,0.6,0.5,1.4,0.5,2.5v8c0,0.7,0.4,1.1,1.1,1.1c0.2,0,0.4,0,0.6-0.1v1.5
		c-0.2,0-0.4,0.1-0.6,0.1c-0.2,0-0.4,0-0.6,0c-0.5,0-0.8-0.1-1.1-0.2c-0.3-0.1-0.5-0.3-0.6-0.5c-0.2-0.2-0.3-0.5-0.3-0.8
		c0-0.3-0.1-0.7-0.1-1.1h-0.1c-0.3,0.5-0.6,0.9-1,1.3c-0.3,0.4-0.7,0.7-1.1,0.9c-0.4,0.3-0.9,0.4-1.4,0.6c-0.5,0.1-1.1,0.2-1.9,0.2
		c-0.7,0-1.3-0.1-1.9-0.2c-0.6-0.2-1.1-0.4-1.6-0.8c-0.4-0.4-0.8-0.8-1.1-1.4s-0.4-1.2-0.4-2c0-1,0.2-1.9,0.7-2.5
		c0.5-0.6,1.1-1,1.8-1.4c0.7-0.3,1.6-0.5,2.5-0.7c0.9-0.1,1.9-0.2,2.9-0.4c0.4,0,0.7-0.1,1-0.1c0.3-0.1,0.5-0.2,0.7-0.3
		c0.2-0.1,0.3-0.3,0.4-0.6s0.2-0.6,0.2-1c0-0.6-0.1-1.1-0.3-1.5c-0.2-0.4-0.5-0.7-0.8-0.9C27.9,7.2,27.5,7.1,27,7
		c-0.5-0.1-1-0.1-1.5-0.1c-1.1,0-2.1,0.3-2.8,0.8c-0.7,0.6-1.1,1.4-1.1,2.7h-1.8C19.9,9.5,20,8.7,20.3,8.1 M29.3,12.6
		c-0.1,0.2-0.3,0.4-0.7,0.5s-0.6,0.2-0.9,0.2c-0.8,0.1-1.5,0.3-2.3,0.4c-0.8,0.1-1.5,0.3-2.2,0.5c-0.7,0.2-1.2,0.5-1.6,0.9
		c-0.4,0.4-0.6,1-0.6,1.7c0,0.5,0.1,0.9,0.3,1.2c0.2,0.4,0.4,0.7,0.7,0.9c0.3,0.3,0.7,0.5,1.1,0.6c0.4,0.1,0.8,0.2,1.2,0.2
		c0.7,0,1.3-0.1,2-0.3c0.6-0.2,1.2-0.5,1.6-0.9c0.5-0.4,0.8-0.9,1.1-1.5c0.3-0.6,0.4-1.2,0.4-2L29.3,12.6L29.3,12.6z"/>
	<path class="st0" d="M46.2,20.8v-2.9h-0.1c-0.2,0.5-0.5,0.9-0.8,1.3c-0.4,0.4-0.8,0.8-1.3,1c-0.5,0.3-1,0.5-1.5,0.7
		c-0.5,0.2-1.1,0.2-1.6,0.2c-1.1,0-2.1-0.2-2.9-0.6c-0.8-0.4-1.5-1-2.1-1.7c-0.5-0.7-1-1.6-1.2-2.5c-0.3-1-0.4-2-0.4-3
		c0-1.1,0.1-2.1,0.4-3c0.3-1,0.7-1.8,1.2-2.5S37.2,6.4,38,6c0.8-0.4,1.8-0.6,2.9-0.6c0.5,0,1.1,0.1,1.6,0.2c0.5,0.1,1,0.3,1.5,0.6
		c0.5,0.3,0.9,0.6,1.2,1c0.3,0.4,0.6,0.9,0.8,1.4h0.1V0h1.8v20.8H46.2z M36.4,15.6c0.2,0.8,0.5,1.5,0.9,2.1c0.4,0.6,0.9,1.1,1.5,1.5
		c0.6,0.4,1.3,0.6,2.2,0.6c0.9,0,1.7-0.2,2.4-0.6c0.7-0.4,1.2-0.9,1.6-1.5c0.4-0.6,0.7-1.3,0.9-2.1c0.2-0.8,0.3-1.5,0.3-2.3
		c0-0.8-0.1-1.5-0.3-2.3c-0.2-0.8-0.5-1.5-0.9-2.1c-0.4-0.6-0.9-1.1-1.6-1.5c-0.7-0.4-1.5-0.6-2.4-0.6c-0.9,0-1.6,0.2-2.2,0.6
		c-0.6,0.4-1.1,0.9-1.5,1.5c-0.4,0.6-0.7,1.3-0.9,2.1c-0.2,0.8-0.3,1.5-0.3,2.3C36.2,14,36.2,14.8,36.4,15.6"/>
	<path class="st0" d="M51.9,8.1c0.3-0.6,0.7-1.2,1.2-1.6c0.5-0.4,1.1-0.7,1.8-0.9c0.7-0.2,1.5-0.3,2.3-0.3c0.6,0,1.3,0.1,1.9,0.2
		c0.6,0.1,1.2,0.4,1.7,0.7c0.5,0.3,0.9,0.8,1.2,1.5c0.3,0.6,0.5,1.4,0.5,2.5v8c0,0.7,0.4,1.1,1.1,1.1c0.2,0,0.4,0,0.6-0.1v1.5
		c-0.2,0-0.4,0.1-0.6,0.1c-0.2,0-0.4,0-0.6,0c-0.5,0-0.8-0.1-1.1-0.2c-0.3-0.1-0.5-0.3-0.6-0.5c-0.2-0.2-0.3-0.5-0.3-0.8
		c0-0.3-0.1-0.7-0.1-1.1H61c-0.3,0.5-0.6,0.9-1,1.3c-0.3,0.4-0.7,0.7-1.1,0.9c-0.4,0.3-0.9,0.4-1.4,0.6c-0.5,0.1-1.1,0.2-1.9,0.2
		c-0.7,0-1.3-0.1-1.9-0.2c-0.6-0.2-1.1-0.4-1.6-0.8c-0.4-0.4-0.8-0.8-1.1-1.4c-0.3-0.6-0.4-1.2-0.4-2c0-1,0.2-1.9,0.7-2.5
		c0.5-0.6,1.1-1,1.8-1.4c0.7-0.3,1.6-0.5,2.5-0.7c0.9-0.1,1.9-0.2,2.9-0.4c0.4,0,0.7-0.1,1-0.1c0.3-0.1,0.5-0.2,0.7-0.3
		c0.2-0.1,0.3-0.3,0.4-0.6c0.1-0.3,0.2-0.6,0.2-1c0-0.6-0.1-1.1-0.3-1.5c-0.2-0.4-0.5-0.7-0.8-0.9c-0.4-0.2-0.8-0.4-1.2-0.5
		c-0.5-0.1-1-0.1-1.5-0.1c-1.1,0-2.1,0.3-2.8,0.8c-0.7,0.6-1.1,1.4-1.1,2.7h-1.8C51.5,9.5,51.6,8.7,51.9,8.1 M60.9,12.6
		c-0.1,0.2-0.3,0.4-0.7,0.5c-0.3,0.1-0.6,0.2-0.9,0.2c-0.8,0.1-1.5,0.3-2.3,0.4c-0.8,0.1-1.5,0.3-2.2,0.5c-0.7,0.2-1.2,0.5-1.6,0.9
		c-0.4,0.4-0.6,1-0.6,1.7c0,0.5,0.1,0.9,0.3,1.2c0.2,0.4,0.4,0.7,0.7,0.9c0.3,0.3,0.7,0.5,1.1,0.6c0.4,0.1,0.8,0.2,1.2,0.2
		c0.7,0,1.3-0.1,2-0.3c0.6-0.2,1.2-0.5,1.6-0.9c0.5-0.4,0.8-0.9,1.1-1.5c0.3-0.6,0.4-1.2,0.4-2L60.9,12.6L60.9,12.6z"/>
	<path class="st0" d="M75.6,7.8c-0.7-0.6-1.6-1-2.8-1c-0.9,0-1.6,0.2-2.2,0.6c-0.6,0.4-1.2,0.9-1.6,1.5c-0.4,0.6-0.7,1.3-1,2.1
		c-0.2,0.8-0.3,1.5-0.3,2.3c0,0.8,0.1,1.6,0.3,2.3c0.2,0.8,0.5,1.5,1,2.1c0.4,0.6,1,1.1,1.6,1.5c0.6,0.4,1.4,0.6,2.2,0.6
		c0.5,0,1.1-0.1,1.6-0.3c0.5-0.2,0.9-0.5,1.3-0.9c0.4-0.4,0.7-0.8,0.9-1.4c0.2-0.5,0.4-1.1,0.5-1.7h1.8c-0.2,1.8-0.9,3.2-2,4.3
		c-1.1,1-2.4,1.5-4.1,1.5c-1.1,0-2.1-0.2-3-0.6c-0.9-0.4-1.6-1-2.2-1.7c-0.6-0.7-1-1.6-1.3-2.5c-0.3-1-0.5-2-0.5-3.1
		s0.2-2.1,0.5-3.1c0.3-1,0.7-1.8,1.3-2.5C68.2,7,69,6.4,69.8,6c0.9-0.4,1.9-0.6,3-0.6c1.6,0,2.9,0.4,4,1.3c1.1,0.9,1.7,2.1,1.9,3.9
		h-1.8C76.7,9.3,76.2,8.5,75.6,7.8"/>
	<path class="st0" d="M82.9,15.8c0.2,0.7,0.5,1.3,0.9,1.9c0.4,0.6,0.9,1,1.5,1.4c0.6,0.4,1.3,0.6,2.2,0.6c1.3,0,2.3-0.3,3.1-1
		c0.7-0.7,1.2-1.6,1.5-2.8h1.8c-0.4,1.7-1.1,3-2.1,4c-1,0.9-2.4,1.4-4.3,1.4c-1.2,0-2.2-0.2-3-0.6c-0.8-0.4-1.5-1-2.1-1.7
		c-0.5-0.7-0.9-1.6-1.2-2.5c-0.3-1-0.4-2-0.4-3c0-1,0.1-2,0.4-2.9c0.3-0.9,0.6-1.8,1.2-2.5C83,7.1,83.7,6.5,84.5,6
		c0.8-0.5,1.8-0.7,3-0.7c1.2,0,2.2,0.2,3,0.7c0.8,0.5,1.5,1.1,2,1.9c0.5,0.8,0.9,1.7,1.1,2.7c0.2,1,0.3,2.1,0.3,3.1H82.7
		C82.7,14.4,82.8,15.1,82.9,15.8 M91.8,10.2c-0.2-0.6-0.5-1.2-0.9-1.7C90.5,8,90,7.6,89.4,7.3c-0.6-0.3-1.2-0.5-1.9-0.5
		c-0.7,0-1.4,0.2-2,0.5C85,7.6,84.5,8,84.1,8.5c-0.4,0.5-0.7,1.1-1,1.7c-0.2,0.6-0.4,1.3-0.5,2h9.5C92.1,11.5,92,10.9,91.8,10.2"/>
</g>
</svg>
