<svg version="1.2" xmlns="http://www.w3.org/2000/svg" viewBox="0 0 636 97">
	<style>
		.s0 { fill: #0c5b73 } 
		.s1 { fill: #2fc3e3 } 
		.s2 { fill: #baccde } 
	</style>
	<g id="Vrstva 1">
		<g id="&lt;Group&gt;">
			<path id="&lt;Path&gt;" class="s0" d="m27.29 26.85v68.95l-26.07-15.49v-66.47z"/>
			<path id="&lt;Path&gt;" class="s1" d="m27.29 26.85v68.94l26.06-15.49v-66.47z"/>
			<path id="&lt;Path&gt;" class="s2" d="m53.35 13.83l-26.04 12.93-26.09-12.92 25.08-12.92z"/>
			<g id="&lt;Group&gt;">
				<path id="&lt;Compound Path&gt;" fill-rule="evenodd" class="s1" d="m85.17 51.18v31.2c0 3.43-1.41 5.38-5.1 5.38-3.69 0-5.13-1.95-5.13-5.38v-73.17c0-3.44 1.44-5.39 5.13-5.39 3.69 0 5.1 1.95 5.1 5.39v31.19h30.16v-31.19c0-3.44 1.42-5.39 5.11-5.39 3.7 0 5.14 1.95 5.14 5.39v73.17c0 3.43-1.44 5.38-5.14 5.38-3.69 0-5.11-1.95-5.11-5.38v-31.2zm81.71 31.2c0 3.43-1.43 5.38-5.11 5.38-3.69 0-5.14-1.95-5.14-5.38v-34.53l-20.18-27.64v-11c0-3.44 1.43-5.39 5.13-5.39 3.68 0 5.11 1.95 5.11 5.39v7.33l15.08 20.61 15.06-20.61v-7.33c0-3.44 1.44-5.39 5.13-5.39 3.68 0 5.12 1.95 5.12 5.39v11l-20.2 27.64zm41.32 0c0 3.44-1.44 5.39-5.12 5.39-3.7 0-5.12-1.95-5.12-5.39v-78.56h34.02c4.72 0 8.1 0.75 11.79 4.42 4.41 4.33 4.82 8.31 4.82 14.14v14.67c0 5.51-0.41 9.4-4.2 13.82-4.01 4.74-8.2 5.18-13.73 5.18h-22.46zm0-37.14h22.76c6.05 0 7.4-1.61 7.4-7.76v-15.1c0-6.17-1.35-7.77-7.4-7.77h-22.76zm96.79 31.74c2.68 0 5.13 1.5 5.13 5.39 0 3.89-2.45 5.39-5.13 5.39h-45.52v-83.95h45.52c2.68 0 5.13 1.52 5.13 5.4 0 3.87-2.45 5.39-5.13 5.39h-35.28v25.8h15.07c2.68 0 5.13 1.5 5.13 5.39 0 3.87-2.45 5.39-5.13 5.39h-15.07v25.8zm26.24 5.39c0 3.44-1.43 5.39-5.13 5.39-3.68 0-5.11-1.95-5.11-5.39v-78.56h34.44c8.1 0 16.2 6.04 16.2 15.64v7.46c0 10.13-8 15.31-16.2 15.31h-9.44l23.08 34.76c1.12 1.6 2.56 3.66 2.56 5.71 0 3.02-2.35 5.07-5.24 5.07-2.05 0-3.37-1.3-4.49-3.01l-28.3-42.53h-2.37zm0-50.93h22.76c2.88 0 7.38-0.22 7.38-4.54v-7.45c0-4.32-4.19-4.85-7.26-4.85h-22.88z"/>
				<path id="&lt;Compound Path&gt;" fill-rule="evenodd" class="s0" d="m411.73 87.76c-7.68 0-12.09-3.24-15.37-10.26l-9.43-20.05c-1.74-3.68-2.78-7.12-2.78-11.34 0-4.76 0.83-7.65 2.89-11.97l9.42-19.97c3.48-7.45 7.89-10.35 15.79-10.35h17.42c2.26 0 5.12 1.29 5.12 5.39 0 3.88-2.75 5.39-5.12 5.39h-17.12c-4.39 0-5.11 0.43-7.06 4.53l-8.93 18.78c-1.33 2.91-2.14 4.86-2.14 8.2 0 3.02 0.93 4.85 2.14 7.45l8.72 18.65c2.04 4.43 3.08 4.75 7.67 4.75h16.72c2.26 0 5.12 1.3 5.12 5.4 0 3.88-2.75 5.4-5.12 5.4zm55.67 0c-5.15 0-9.13-1.3-12.72-5.52-3.38-3.98-3.9-7.87-3.9-12.82v-60.21c0-3.46 1.43-5.39 5.13-5.39 3.69 0 5.11 1.93 5.11 5.39v60.21c0 6.03 1.76 7.54 6.38 7.54h17.42c4.61 0 6.35-1.51 6.35-7.54v-60.21c0-3.46 1.43-5.39 5.12-5.39 3.69 0 5.14 1.93 5.14 5.39v60.21c0 4.95-0.53 8.84-3.9 12.82-3.59 4.22-7.59 5.52-12.71 5.52zm50.01-83.94h28.71c15.06 0 21.92 9.7 21.92 24.9 0 6.28-1.33 11.99-6.76 17.07 5.85 5.82 6.76 11.54 6.76 19.53 0 14.13-8.92 22.44-21.92 22.44h-28.71zm10.26 36.57h18.45c7.36 0 11.67-3.43 11.67-11.66 0-9.05-2.36-14.12-11.67-14.12h-18.45zm0 36.58h18.45c7.36 0 11.67-3.44 11.67-11.65 0-9.06-2.36-14.14-11.67-14.14h-18.45zm101.86 0c2.7 0 5.15 1.51 5.15 5.39 0 3.88-2.45 5.4-5.15 5.4h-45.5v-83.94h45.5c2.7 0 5.15 1.51 5.15 5.39 0 3.88-2.45 5.39-5.15 5.39h-35.23v25.78h15.05c2.66 0 5.13 1.51 5.13 5.41 0 3.88-2.47 5.38-5.13 5.38h-15.05v25.8z"/>
			</g>
		</g>
	</g>
</svg>