<?xml version="1.0" encoding="UTF-8"?>
<svg xmlns="http://www.w3.org/2000/svg" xmlns:xlink="http://www.w3.org/1999/xlink" viewBox="0 0 150 150">
  <defs>
    <style>
      .cls-2 {
        fill: none;
        stroke: var(--bs-primary-rgb, #fa709a);
        stroke-miterlimit: 10;
        stroke-width: 2.5px;
        stroke-linecap: round;
        stroke-miterlimit: 0;
      }
    </style>
  </defs>
  <g id="Vrstva_1" data-name="Vrstva 1">
    <g>
      <path class="cls-2" d="m42.57,41.61h38.16c2.11,0,3.82,1.71,3.82,3.82v41.97c0,6.32-5.13,11.45-11.45,11.45h-22.89c-6.32,0-11.45-5.13-11.45-11.45v-41.97c0-2.11,1.71-3.82,3.82-3.82Z"/>
      <circle class="cls-2" cx="61.65" cy="35.89" r="5.72"/>
      <path class="cls-2" d="m67.37,93.12v17.17c0,4.21,3.42,7.63,7.63,7.63h13.35c4.21,0,7.63-3.42,7.63-7.63v-28.62c0-4.21,3.42-7.63,7.63-7.63h0c4.21,0,7.63,3.42,7.63,7.63v38.16"/>
      <line class="cls-2" x1="63.55" y1="106.48" x2="71.18" y2="106.48"/>
      <line class="cls-2" x1="55.92" y1="93.12" x2="55.92" y2="106.48"/>
      <path class="cls-2" d="m61.65,70.23c4.03,0,7.63-2.99,7.63-7,0-5.92-6.58-8.84-7.63-13.99-1.05,5.15-7.63,8.07-7.63,13.99,0,4.01,3.6,7,7.63,7Z"/>
      <path class="cls-2" d="m38.75,81.68c3.82,0,7.63-3.82,11.45-3.81,3.82,0,7.63,3.81,11.45,3.81s7.63-3.82,11.45-3.81c3.82,0,7.63,3.81,11.45,3.81"/>
    </g>
  </g>

</svg>