<?xml version="1.0" encoding="UTF-8"?>
<svg xmlns="http://www.w3.org/2000/svg" xmlns:xlink="http://www.w3.org/1999/xlink" viewBox="0 0 150 150">
  <defs>
    <style>
      .cls-2 {
        fill: none;
        stroke: var(--bs-primary-rgb, #fa709a);
        stroke-miterlimit: 10;
        stroke-width: 2.5px;
        stroke-linecap: round;
        stroke-miterlimit: 0;
      }
    </style>
  </defs>
  <g id="Vrstva_1" data-name="Vrstva 1">
    <g>
      <path class="cls-2" d="m93.75,82.61c1.07,3.08,1.7,5.88,1.7,8.12,0,14.75-11.98,26.74-26.74,26.74-14.75,0-26.74-11.98-26.74-26.74,0-11.61,16.51-37.02,23.59-47.37,1.51-2.23,4.78-2.23,6.29,0,1.57,2.33,3.65,5.41,5.91,8.96"/>
      <path class="cls-2" d="m108.03,65.59c0,9.55-7.75,17.3-17.3,17.3-9.55,0-17.3-7.75-17.3-17.3,0-7.01,9.32-23.23,14.28-31.35,1.38-2.27,4.65-2.27,6.04,0,4.96,8.12,14.28,24.34,14.28,31.35Z"/>
      <g>
        <circle class="cls-2" cx="60.85" cy="87.58" r="6.29"/>
        <line class="cls-2" x1="60.85" y1="76.57" x2="60.85" y2="81.29"/>
        <line class="cls-2" x1="53.06" y1="79.8" x2="56.4" y2="83.13"/>
        <line class="cls-2" x1="49.84" y1="87.58" x2="54.55" y2="87.58"/>
        <line class="cls-2" x1="53.06" y1="95.37" x2="56.4" y2="92.03"/>
        <line class="cls-2" x1="60.85" y1="98.59" x2="60.85" y2="93.87"/>
        <line class="cls-2" x1="68.63" y1="95.37" x2="65.29" y2="92.03"/>
        <line class="cls-2" x1="71.85" y1="87.58" x2="67.14" y2="87.58"/>
        <line class="cls-2" x1="68.63" y1="79.8" x2="65.29" y2="83.13"/>
      </g>
      <g>
        <circle class="cls-2" cx="78.15" cy="101.74" r="3.15"/>
        <line class="cls-2" x1="78.15" y1="95.45" x2="78.15" y2="98.59"/>
        <line class="cls-2" x1="73.7" y1="97.29" x2="75.92" y2="99.51"/>
        <line class="cls-2" x1="71.85" y1="101.74" x2="75" y2="101.74"/>
        <line class="cls-2" x1="73.7" y1="106.19" x2="75.92" y2="103.96"/>
        <line class="cls-2" x1="78.15" y1="108.03" x2="78.15" y2="104.88"/>
        <line class="cls-2" x1="82.59" y1="106.19" x2="80.37" y2="103.96"/>
        <line class="cls-2" x1="84.44" y1="101.74" x2="81.29" y2="101.74"/>
        <line class="cls-2" x1="82.59" y1="97.29" x2="80.37" y2="99.51"/>
      </g>
      <g>
        <circle class="cls-2" cx="90.73" cy="65.56" r="4.72"/>
        <line class="cls-2" x1="90.73" y1="56.13" x2="90.73" y2="60.85"/>
        <line class="cls-2" x1="84.06" y1="58.89" x2="87.39" y2="62.23"/>
        <line class="cls-2" x1="81.29" y1="65.56" x2="86.01" y2="65.56"/>
        <line class="cls-2" x1="84.06" y1="72.24" x2="87.39" y2="68.9"/>
        <line class="cls-2" x1="90.73" y1="75" x2="90.73" y2="70.28"/>
        <line class="cls-2" x1="97.4" y1="72.24" x2="94.06" y2="68.9"/>
        <line class="cls-2" x1="100.16" y1="65.56" x2="95.45" y2="65.56"/>
        <line class="cls-2" x1="97.4" y1="58.89" x2="94.06" y2="62.23"/>
      </g>
    </g>
  </g>

</svg>