<?xml version="1.0" encoding="UTF-8"?>
<svg xmlns="http://www.w3.org/2000/svg" xmlns:xlink="http://www.w3.org/1999/xlink" viewBox="0 0 150 150">
  <defs>
    <style>
      .cls-2 {
        fill: none;
        stroke: var(--bs-primary-rgb, #fa709a);
        stroke-miterlimit: 10;
        stroke-width: 2.5px;
        stroke-linecap: round;
        stroke-miterlimit: 0;
      }
    </style>
  </defs>
  <g id="Vrstva_1" data-name="Vrstva 1">
    <g>
      <path class="cls-2" d="m51.23,30.07h47.55c1.63,0,2.96,1.33,2.96,2.96v62.17c0,14.75-11.98,26.73-26.73,26.73h0c-14.75,0-26.73-11.98-26.73-26.73v-62.17c0-1.63,1.33-2.96,2.96-2.96Z"/>
      <rect class="cls-2" x="54.58" y="36.16" width="41.4" height="57.31" rx="2.97" ry="2.97"/>
      <circle class="cls-2" cx="75.26" cy="107.71" r="4.61"/>
      <path class="cls-2" d="m63.91,54.25l.04.03c.87.82,1.95,1.85,3.7,2.96.12.08.27.12.41.12s.28-.04.41-.12c1.74-1.11,2.83-2.13,3.71-2.97l.04-.03c1.96-1.86,4.18-3.96,4.18-6.62s-2.21-4.89-4.93-4.89c-1.28,0-2.48.48-3.4,1.35-.92-.87-2.12-1.35-3.4-1.35-2.72,0-4.93,2.2-4.93,4.89s2.22,4.76,4.19,6.62Z"/>
      <path class="cls-2" d="m63.43,72.02h8.07l1.69,4.24,2.54-11.02,3.39,15.98,2.64-13.18,2.04,5.07h6.22"/>
    </g>
  </g>

</svg>