<?xml version="1.0" encoding="UTF-8"?>
<svg xmlns="http://www.w3.org/2000/svg" xmlns:xlink="http://www.w3.org/1999/xlink" viewBox="0 0 150 150">
  <defs>
    <style>
      .cls-2 {
        fill: none;
        stroke: var(--bs-primary-rgb, #fa709a);
        stroke-miterlimit: 10;
        stroke-width: 2.5px;
        stroke-linecap: round;
        stroke-miterlimit: 0;
      }
    </style>
  </defs>
  <g id="Vrstva_1" data-name="Vrstva 1">
    <g>
      <path class="cls-2" d="m85.98,70.17h-29.15c-1.39,0-2.54,1.15-2.54,2.55v2.76c0,1.41,1.15,2.55,2.54,2.55h32.22c.62,0,1.19-.22,1.63-.6"/>
      <path class="cls-2" d="m85.98,70.17l17.99-33.95c.75-1.4,2.47-1.93,3.87-1.18l1.88,1c1.38.74,1.92,2.48,1.17,3.87l-19.39,36.61c-.23.43-.57.79-.95,1.04"/>
      <path class="cls-2" d="m48.02,48.81v4.31c0,2.68,2.16,4.85,4.83,4.85h0c2.67,0,4.83,2.17,4.83,4.85v7.35"/>
      <line class="cls-2" x1="70.07" y1="78.03" x2="70.07" y2="108.36"/>
      <line class="cls-2" x1="84.73" y1="108.36" x2="76.45" y2="78.03"/>
      <rect class="cls-2" x="48.02" y="108.36" width="51.91" height="6.94" rx="1.48" ry="1.48"/>
      <path class="cls-2" d="m61.2,108.36v-9.13c0-1.21-.97-2.18-2.17-2.18h-16.42c-1.2,0-2.17.98-2.17,2.18v1.68c0,1.21.97,2.18,2.17,2.18h7.59v5.27"/>
      <line class="cls-2" x1="70.07" y1="86.43" x2="61.25" y2="86.43"/>
      <path class="cls-2" d="m57.17,88.95h-5.09c-1.64,0-3.15-.88-3.96-2.31l-1.42-2.51c-.22-.38.06-.86.5-.86h14.86c.44,0,.71.48.5.86l-1.42,2.51c-.81,1.43-2.32,2.31-3.96,2.31Z"/>
      <path class="cls-2" d="m69.51,70.17s4.38-16.43,24.15-14.51"/>
      <path class="cls-2" d="m40.76,50.46l-1.34-.72c-1.12-.6-1.4-2.07-.62-3.07,2.49-3.15,6.29-5.04,10.39-5.04,2.73,0,5.33.82,7.52,2.35,1.04.72,1.2,2.21.3,3.11l-1.08,1.08c-.65.66-1.69.82-2.46.3-1.26-.85-2.74-1.3-4.29-1.3-2.29,0-4.43,1.01-5.88,2.72-.64.75-1.67,1.02-2.54.55Z"/>
    </g>
  </g>

</svg>