<?xml version="1.0" encoding="UTF-8"?>
<svg xmlns="http://www.w3.org/2000/svg" xmlns:xlink="http://www.w3.org/1999/xlink" viewBox="0 0 150 150">
  <defs>
    <style>
      .cls-2 {
        fill: none;
        stroke: var(--bs-primary-rgb, #fa709a);
        stroke-miterlimit: 10;
        stroke-width: 2.5px;
        stroke-linecap: round;
        stroke-miterlimit: 0;
      }
    </style>
  </defs>
  <g id="Vrstva_1" data-name="Vrstva 1">
    <g>
      <path class="cls-2" d="m106.54,97.37c0,8.3-6.73,15.02-15.02,15.02-7.07,0-12.98-4.89-14.58-11.46l-9.87-40.55c-.37-1.53-.59-3.11-.59-4.75,0-11.06,8.97-20.03,20.03-20.03,11.06,0,20.03,8.97,20.03,20.03"/>
      <path class="cls-2" d="m98.19,85.69c-3.69,0-6.68-2.99-6.68-6.68,0-1.75.68-3.35,1.78-4.54,3.15-3.39,4.9-7.85,4.9-12.48v-6.35c0-6.46-5.23-11.69-11.69-11.69s-11.69,5.23-11.69,11.69c0,.95.13,1.89.34,2.77l2.98,12.25"/>
      <path class="cls-2" d="m29.46,78.72c1.2-1.22,1.95-2.89,1.95-4.72s-.75-3.51-1.95-4.72"/>
      <path class="cls-2" d="m35.36,84.62c2.72-2.7,4.41-6.48,4.41-10.62s-1.69-7.91-4.41-10.62"/>
      <path class="cls-2" d="m41.26,90.53c4.22-4.24,6.84-10.08,6.84-16.53s-2.62-12.29-6.84-16.53"/>
      <path class="cls-2" d="m47.16,96.42c5.74-5.73,9.3-13.67,9.3-22.42,0-8.75-3.56-16.69-9.3-22.42"/>
    </g>
  </g>

</svg>