<?xml version="1.0" encoding="UTF-8"?>
<svg xmlns="http://www.w3.org/2000/svg" xmlns:xlink="http://www.w3.org/1999/xlink" viewBox="0 0 150 150">
  <defs>
    <style>
      .cls-2 {
        fill: none;
        stroke: var(--bs-primary-rgb, #fa709a);
        stroke-miterlimit: 10;
        stroke-width: 2.5px;
        stroke-linecap: round;
        stroke-miterlimit: 0;
      }
    </style>
  </defs>
  <g id="Vrstva_1" data-name="Vrstva 1">
    <g>
      <g>
        <path class="cls-2" d="m102.8,59.48v.02c-.85,2.7-2.35,4.99-4.28,6.76h-.02c-1.98,1.85-4.45,3.14-7.1,3.72v.02c-2.57.57-5.31.5-7.98-.34-2.7-.85-4.99-2.36-6.77-4.31-1.83-2-3.1-4.45-3.7-7.1v-.02c-.58-2.58-.51-5.33.33-8.02v-.02c.84-2.68,2.35-4.98,4.27-6.75,0,0,0-.02.02-.01,1.98-1.84,4.44-3.13,7.1-3.73,2.55-.58,5.29-.51,7.97.34h.02c2.69.85,4.98,2.36,6.75,4.31,1.83,2,3.1,4.45,3.71,7.08v.02c.58,2.58.51,5.33-.33,8.02Z"/>
        <line class="cls-2" x1="98.53" y1="66.26" x2="98.51" y2="66.26"/>
        <path class="cls-2" d="m91.11,47.67c-.44,1.4-1.93,2.17-3.33,1.73-1.4-.44-2.18-1.93-1.75-3.33.44-1.4,1.93-2.17,3.33-1.73,1.4.44,2.18,1.93,1.75,3.33Z"/>
        <path class="cls-2" d="m82.28,53.04c-.44,1.4-1.93,2.17-3.33,1.73-1.4-.44-2.18-1.93-1.75-3.33.44-1.4,1.93-2.17,3.33-1.73,1.4.44,2.18,1.93,1.75,3.33Z"/>
        <path class="cls-2" d="m85.57,61.86c-.44,1.4-1.93,2.17-3.33,1.73-1.4-.44-2.18-1.93-1.75-3.33.44-1.4,1.93-2.17,3.33-1.73,1.4.44,2.18,1.93,1.75,3.33Z"/>
        <path class="cls-2" d="m91.07,55.99c-.44,1.4-1.93,2.17-3.33,1.73-1.4-.44-2.18-1.93-1.75-3.33.44-1.4,1.93-2.17,3.33-1.73,1.4.44,2.18,1.93,1.75,3.33Z"/>
        <path class="cls-2" d="m98.73,52.17c-.44,1.4-1.93,2.17-3.33,1.73-1.4-.44-2.18-1.93-1.75-3.33.44-1.4,1.93-2.17,3.33-1.73,1.4.44,2.18,1.93,1.75,3.33Z"/>
        <path class="cls-2" d="m96.01,63.09c-.44,1.4-1.93,2.17-3.33,1.73-1.4-.44-2.18-1.93-1.75-3.33.44-1.4,1.93-2.17,3.33-1.73,1.4.44,2.18,1.93,1.75,3.33Z"/>
        <g>
          <line class="cls-2" x1="92.66" y1="40.05" x2="95.31" y2="31.54"/>
          <line class="cls-2" x1="91.41" y1="30.32" x2="99.21" y2="32.77"/>
        </g>
        <g>
          <line class="cls-2" x1="80.92" y1="41.18" x2="76.8" y2="33.28"/>
          <line class="cls-2" x1="73.18" y1="35.19" x2="80.42" y2="31.38"/>
        </g>
        <g>
          <line class="cls-2" x1="73.1" y1="50.35" x2="64.63" y2="47.68"/>
          <line class="cls-2" x1="63.41" y1="51.59" x2="65.85" y2="43.77"/>
        </g>
        <g>
          <line class="cls-2" x1="74.01" y1="61.65" x2="66.14" y2="65.78"/>
          <line class="cls-2" x1="68.04" y1="69.41" x2="64.25" y2="62.15"/>
        </g>
        <g>
          <line class="cls-2" x1="83.16" y1="69.57" x2="80.51" y2="78.08"/>
          <line class="cls-2" x1="84.41" y1="79.3" x2="76.61" y2="76.85"/>
        </g>
        <g>
          <line class="cls-2" x1="93.98" y1="69.17" x2="98.1" y2="77.07"/>
          <line class="cls-2" x1="101.72" y1="75.17" x2="94.48" y2="78.97"/>
        </g>
        <g>
          <line class="cls-2" x1="102.38" y1="60.85" x2="110.85" y2="63.51"/>
          <line class="cls-2" x1="112.07" y1="59.6" x2="109.63" y2="67.42"/>
        </g>
        <g>
          <line class="cls-2" x1="109.77" y1="44.29" x2="102.06" y2="48.33"/>
          <line class="cls-2" x1="107.87" y1="40.66" x2="111.66" y2="47.92"/>
        </g>
      </g>
      <g>
        <path class="cls-2" d="m95.12,108.45h0c-.56,1.51-1.49,2.76-2.64,3.7h0c-1.18.98-2.62,1.63-4.14,1.88h0c-1.47.25-3.02.12-4.51-.44-1.5-.57-2.75-1.5-3.69-2.66-.97-1.19-1.62-2.62-1.87-4.14h0c-.25-1.49-.12-3.04.44-4.54h0c.56-1.5,1.49-2.75,2.63-3.69,0,0,0,0,.01,0,1.18-.98,2.62-1.63,4.14-1.88,1.46-.24,3.01-.12,4.51.45h0c1.49.57,2.74,1.5,3.69,2.66.97,1.19,1.62,2.62,1.87,4.13h0c.25,1.49.12,3.04-.44,4.54Z"/>
        <line class="cls-2" x1="92.48" y1="112.15" x2="92.47" y2="112.15"/>
        <path class="cls-2" d="m86.94,102.25c-.29.78-1.16,1.17-1.94.87-.78-.29-1.18-1.16-.88-1.94.29-.78,1.16-1.17,1.94-.87.78.29,1.18,1.16.88,1.94Z"/>
        <path class="cls-2" d="m84.34,107.44c-.29.78-1.16,1.17-1.94.87-.78-.29-1.18-1.16-.88-1.94.29-.78,1.16-1.17,1.94-.87.78.29,1.18,1.16.88,1.94Z"/>
        <path class="cls-2" d="m89.48,109.38c-.29.78-1.16,1.17-1.94.87s-1.18-1.16-.88-1.94c.29-.78,1.16-1.17,1.94-.87.78.29,1.18,1.16.88,1.94Z"/>
        <path class="cls-2" d="m92.52,105.05c-.29.78-1.16,1.17-1.94.87-.78-.29-1.18-1.16-.88-1.94.29-.78,1.16-1.17,1.94-.87.78.29,1.18,1.16.88,1.94Z"/>
        <g>
          <line class="cls-2" x1="90" y1="97.11" x2="91.78" y2="92.38"/>
          <line class="cls-2" x1="89.61" y1="91.56" x2="93.95" y2="93.2"/>
        </g>
        <g>
          <line class="cls-2" x1="81.27" y1="98.47" x2="78.08" y2="94.56"/>
          <line class="cls-2" x1="76.29" y1="96.04" x2="79.87" y2="93.09"/>
        </g>
        <g>
          <line class="cls-2" x1="78.21" y1="106.63" x2="73.24" y2="107.45"/>
          <line class="cls-2" x1="73.61" y1="109.75" x2="72.86" y2="105.16"/>
        </g>
        <g>
          <line class="cls-2" x1="83.81" y1="113.6" x2="82.03" y2="118.33"/>
          <line class="cls-2" x1="84.2" y1="119.15" x2="79.86" y2="117.51"/>
        </g>
        <g>
          <line class="cls-2" x1="92.48" y1="112.15" x2="95.68" y2="116.06"/>
          <line class="cls-2" x1="97.47" y1="114.58" x2="93.88" y2="117.53"/>
        </g>
        <g>
          <line class="cls-2" x1="95.59" y1="103.88" x2="100.56" y2="103.05"/>
          <line class="cls-2" x1="100.18" y1="100.76" x2="100.94" y2="105.35"/>
        </g>
      </g>
      <g>
        <path class="cls-2" d="m55.15,94.63h0c-.8,1.94-2.06,3.54-3.59,4.72h-.01c-1.59,1.23-3.49,2.02-5.48,2.28h0c-1.93.26-3.94.03-5.86-.76-1.94-.8-3.53-2.07-4.71-3.63-1.22-1.6-2-3.49-2.27-5.48h0c-.26-1.95-.03-3.97.76-5.91h0c.79-1.93,2.05-3.53,3.59-4.71,0,0,0-.01.02,0,1.58-1.23,3.48-2.02,5.48-2.28,1.92-.26,3.93-.03,5.86.77h.01c1.93.8,3.52,2.07,4.7,3.63,1.22,1.6,2,3.49,2.27,5.47h0c.26,1.95.03,3.97-.76,5.91Z"/>
        <line class="cls-2" x1="51.55" y1="99.35" x2="51.54" y2="99.35"/>
        <path class="cls-2" d="m47.3,85.15c-.41,1-1.56,1.48-2.57,1.06-1.01-.42-1.49-1.57-1.07-2.57.41-1,1.56-1.48,2.57-1.06,1.01.42,1.49,1.57,1.07,2.57Z"/>
        <path class="cls-2" d="m40.43,88.53c-.41,1-1.56,1.48-2.57,1.06-1.01-.42-1.49-1.57-1.07-2.57.41-1,1.56-1.48,2.57-1.06,1.01.42,1.49,1.57,1.07,2.57Z"/>
        <path class="cls-2" d="m42.28,95.25c-.41,1-1.56,1.48-2.57,1.06s-1.49-1.57-1.07-2.57c.41-1,1.56-1.48,2.57-1.06s1.49,1.57,1.07,2.57Z"/>
        <path class="cls-2" d="m46.72,91.28c-.41,1-1.56,1.48-2.57,1.06-1.01-.42-1.49-1.57-1.07-2.57.41-1,1.56-1.48,2.57-1.06,1.01.42,1.49,1.57,1.07,2.57Z"/>
        <path class="cls-2" d="m52.63,88.97c-.41,1-1.56,1.48-2.57,1.06-1.01-.42-1.49-1.57-1.07-2.57s1.56-1.48,2.57-1.06,1.49,1.57,1.07,2.57Z"/>
        <path class="cls-2" d="m49.91,96.85c-.41,1-1.56,1.48-2.57,1.06-1.01-.42-1.49-1.57-1.07-2.57.41-1,1.56-1.48,2.57-1.06,1.01.42,1.49,1.57,1.07,2.57Z"/>
        <g>
          <line class="cls-2" x1="48.94" y1="79.63" x2="51.46" y2="73.53"/>
          <line class="cls-2" x1="48.66" y1="72.37" x2="54.25" y2="74.69"/>
        </g>
        <g>
          <line class="cls-2" x1="40.21" y1="79.69" x2="37.68" y2="73.59"/>
          <line class="cls-2" x1="34.89" y1="74.75" x2="40.48" y2="72.43"/>
        </g>
        <g>
          <line class="cls-2" x1="33.84" y1="85.93" x2="27.76" y2="83.41"/>
          <line class="cls-2" x1="26.6" y1="86.22" x2="28.92" y2="80.61"/>
        </g>
        <g>
          <line class="cls-2" x1="33.77" y1="94.33" x2="27.69" y2="96.86"/>
          <line class="cls-2" x1="28.85" y1="99.67" x2="26.53" y2="94.06"/>
        </g>
        <g>
          <line class="cls-2" x1="40" y1="100.78" x2="37.49" y2="106.89"/>
          <line class="cls-2" x1="40.28" y1="108.05" x2="34.69" y2="105.72"/>
        </g>
        <g>
          <line class="cls-2" x1="48.01" y1="101.2" x2="50.53" y2="107.3"/>
          <line class="cls-2" x1="53.32" y1="106.14" x2="47.73" y2="108.46"/>
        </g>
        <g>
          <line class="cls-2" x1="54.75" y1="95.61" x2="60.83" y2="98.14"/>
          <line class="cls-2" x1="61.99" y1="95.33" x2="59.67" y2="100.94"/>
        </g>
        <g>
          <line class="cls-2" x1="61.29" y1="83.88" x2="55.34" y2="86.36"/>
          <line class="cls-2" x1="60.13" y1="81.08" x2="62.45" y2="86.69"/>
        </g>
      </g>
    </g>
  </g>

</svg>