<?xml version="1.0" encoding="UTF-8"?>
<svg xmlns="http://www.w3.org/2000/svg" xmlns:xlink="http://www.w3.org/1999/xlink" viewBox="0 0 150 150">
  <defs>
    <style>
      .cls-2 {
        fill: none;
        stroke: var(--bs-primary-rgb, #fa709a);
        stroke-miterlimit: 10;
        stroke-width: 2.5px;
        stroke-linecap: round;
        stroke-miterlimit: 0;
      }
    </style>
  </defs>
  <g id="Vrstva_1" data-name="Vrstva 1">
    <g id="g1140">
      <path id="path871-9" class="cls-2" d="m86.81,41.03c0,6.52-5.29,11.81-11.81,11.81-6.52,0-11.81-5.29-11.81-11.81s5.29-11.81,11.81-11.81,11.81,5.29,11.81,11.81h0Z"/>
      <path id="path1017" class="cls-2" d="m60.24,86.77c0,1.91.37,3.74,1.03,5.41l-8.45,7.56c-.91.84-1.44,2.02-1.44,3.26v13.28c-.08,5.99,8.94,5.99,8.85,0v-11.33s6.59-5.88,6.59-5.88c2.34,1.55,5.14,2.46,8.17,2.46s5.83-.9,8.17-2.46l6.59,5.88v11.33c-.08,5.99,8.94,5.99,8.85,0v-13.28c0-1.24-.52-2.42-1.44-3.26l-8.45-7.56c.66-1.68,1.03-3.5,1.03-5.41v-7.38s0-7.38,0-7.38h9.09c1.91,0,3.6-1.22,4.2-3.03l4.43-13.28c.98-2.81-1.04-5.78-4.02-5.89-1.99-.07-3.78,1.19-4.38,3.08l-3.42,10.26h-8.86c-2.69-3.58-6.96-5.9-11.8-5.9s-9.11,2.32-11.8,5.9h-8.86s-3.42-10.26-3.42-10.26c-.6-1.9-2.39-3.16-4.38-3.08-2.98.11-5,3.07-4.02,5.89l4.43,13.28c.6,1.81,2.29,3.03,4.2,3.03h9.09s0,7.38,0,7.38v7.38Z"/>
      <path id="path1027" class="cls-2" d="m89.76,85.3h-29.52"/>
    </g>
  </g>

</svg>