<svg version="1.2" xmlns="http://www.w3.org/2000/svg" viewBox="0 0 495 440" width="495" height="440">
	<style>
		.s0 { fill: #21438e } 
		.s1 { fill: #ffffff } 
	</style>
	<path class="s0" d="m113.26 233.9c3.04 2.61 5.94 5.29 9.06 7.82 26.81 21.96 57.39 36.09 91.01 43.91 21.24 4.93 42.76 7.03 64.5 6.16 40.29-1.52 78.11-11.74 112.97-32.31q1.08-0.66 2.17-1.31c0.07 0 0.15-0.22 0.29-0.51q-0.76-0.32-1.52-0.65c-28.55-10.94-45.8-31.37-50.73-61.52-6.59-39.99 21.45-79.19 61.24-86.58 41.88-7.76 81.3 18.04 90.07 59.63 5.65 26.74-1.81 50.14-20.58 69.92-1.6 1.67-2.17 3.19-2.17 5.44q0 72.49 0 144.99c0 1.52-0.29 3.11-0.87 4.49-11.67 26.09-31.6 41.59-59.79 46.59-0.72 0.15-1.45 0.07-2.1 0.07q-154.45 0-308.91 0c-6.96 0-13.55-2.32-19.93-4.92-19.56-8.19-33.55-22.03-41.88-41.45-0.66-1.52-0.95-3.26-1.02-4.85q0-93.15 0-186.3c0-1.74-0.43-2.97-1.74-4.27-18.04-18.55-28.98-40.65-32.32-66.3-7.89-60.94 31.74-117.24 92.25-129.34 43.26-8.62 80.51 4.2 110.51 36.59 15.87 17.1 25.22 37.68 28.4 60.72 4.64 33.77-3.69 64.13-25.21 90.57-18.34 22.61-42.32 36.23-71.02 41.16-6.74 1.16-13.69 1.16-20.51 1.74q-0.97 0-1.95 0c-0.07 0.15-0.22 0.36-0.29 0.51"/>
	<path class="s1" d="m154.86 413.89q-8.81 7.39-23.48 7.39c-9.79 0-17.47-2.39-22.83-7.25-5.36-4.85-8.04-11.74-8.04-20.72v-58.26h15v57.39c0 4.56 1.37 8.26 4.2 11.08 2.83 2.83 6.67 4.28 11.52 4.28 5.51 0 9.78-1.38 12.83-4.2 3.04-2.83 4.56-6.6 4.56-11.45v-57.1h15v58.33c0 8.7-2.9 15.58-8.76 20.51zm-30.37-85.8l9.71-16.95h14.42l-13.04 16.95zm78.33 61.09c-1.66 0-3.98-0.15-6.81-0.44v31.16h-15v-84.78c10.07-0.43 15.87-0.65 17.61-0.65 13.41 0 23.19 2.03 29.42 6.16 6.16 4.13 9.28 10.58 9.28 19.27 0 19.5-11.45 29.2-34.42 29.2m-2.32-41.15c-1.6 0-3.12 0.07-4.57 0.29v27.1c2.54 0.29 4.57 0.43 6.02 0.43 6.88 0 11.95-1.16 15.07-3.48 3.19-2.31 4.78-6.01 4.78-11.23 0-8.76-7.1-13.18-21.3-13.11zm114.78 72.02l-8.7-45.72-17.24 46.88h-5.44l-17.17-46.88-9.13 45.72h-14.64l17.17-84.85h7.98l18.47 57.25 18.12-57.25h7.83l17.31 84.85h-14.63zm42.61 0h-18.85v-84.77c12.03-0.44 19.57-0.66 22.69-0.66 12.39 0 22.17 3.63 29.42 10.87 7.24 7.25 10.87 16.81 10.87 28.84 0 30.51-14.71 45.79-44.06 45.79m3.04-72.09c-1.67 0-3.91 0.14-6.96 0.43v57.83c2.47 0.21 5.08 0.36 7.9 0.36 7.61 0 13.63-2.76 17.97-8.26 4.35-5.51 6.53-13.19 6.53-23.12 0-18.11-8.48-27.17-25.44-27.24z"/>
</svg>